<?xml version="1.0" encoding="utf-8"?>
<!-- Generator: Adobe Illustrator 27.5.0, SVG Export Plug-In . SVG Version: 6.00 Build 0)  -->
<svg version="1.1" id="Layer_1" xmlns="http://www.w3.org/2000/svg" xmlns:xlink="http://www.w3.org/1999/xlink" x="0px" y="0px"
	 viewBox="0 0 367.048 380.259" style="enable-background:new 0 0 367.048 380.259;" xml:space="preserve">
<g>
	<g>
		<path style="fill:#6B6C6F;" d="M344.632,259.359c-0.242,0-0.439-0.196-0.439-0.439V6.35c0-0.242,0.196-0.439,0.439-0.439
			c0.242,0,0.438,0.196,0.438,0.439v252.571C345.07,259.163,344.874,259.359,344.632,259.359z"/>
		<path style="fill:#A5A7AA;" d="M344.015,280.383c0.012-0.489,0.021-5.211,0.018-7.067c-0.003-1.858-0.005-3.715-0.008-5.573
			c-0.003-1.856,0-3.712,0.013-5.568c0.006-0.926,0.012-1.85,0.049-2.775c0.018-0.454,0.039-0.905,0.081-1.357
			c0.036-0.389,0.023-0.885,0.307-1.184c0.223-0.234,0.588-0.078,0.742,0.162c0.469,0.733,0.376,1.864,0.409,2.705
			c0.037,0.932,0.043,1.863,0.049,2.796c0.013,1.858,0.016,3.716,0.013,5.574c-0.003,1.856-0.005,3.713-0.008,5.569
			c-0.002,1.437-0.064,7.331,0.018,8.833c0.067,1.226,0.457,2.423,1.157,3.435c1.371,1.979,3.885,2.485,6.14,2.061
			c2.407-0.453,4.455-1.833,5.765-3.906c0.647-1.025,1.068-2.167,1.262-3.362c0.211-1.293,0.06-2.632-0.178-3.911
			c-0.156-0.837-0.899-2.557-0.95-2.638c-0.451-0.716-0.924-1.398-1.335-2.119c-0.062,1.474-0.529,2.83-1.24,4.126
			c0.237-1.156,0.201-2.341,0.073-3.514c-0.004-0.034-0.008-0.068-0.012-0.102c-0.001-0.347-0.019-0.694-0.057-1.038
			c-0.16-1.445-0.689-2.781-1.224-4.12c-0.012-0.025-0.019-0.047-0.026-0.069c0.459,0.38,0.869,0.828,1.242,1.272
			c0.619,0.737,1.164,1.531,1.723,2.314c0.516,0.723,1.014,1.459,1.494,2.207c0.562,1.039,1.049,2.123,1.406,3.247
			c0.441,1.388,0.678,2.908,0.588,4.366c-0.085,1.382-0.499,2.69-1.171,3.899c-1.324,2.38-3.602,4.069-6.261,4.647
			c-2.762,0.6-5.778,0.062-7.809-2.009c-1.152-1.175-1.886-2.717-2.161-4.332C343.977,282.105,343.995,281.237,344.015,280.383z"/>
		<path style="fill:#A5A7AA;" d="M345.29,260.04c-0.029-0.398-0.042-0.79-0.056-1.188c-0.014-0.384-0.056-0.762-0.265-1.094
			c-0.126-0.201-0.447,0.005-0.501,0.165c-0.116,0.343-0.104,0.723-0.079,1.098c-0.085,0.5-0.072,1.022-0.048,1.521
			c0.039,0.798,0.018,1.592-0.009,2.39c-0.056,1.656-0.033,3.292,0.069,4.945c0.019,0.298,0.387,0.124,0.464-0.046
			c0.318-0.706,0.371-1.527,0.4-2.29c0.034-0.868,0.055-1.737,0.077-2.605C345.368,261.97,345.361,261.002,345.29,260.04z"/>
		<path style="fill:#A5A7AA;" d="M345.27,273.066c0.004-0.28-0.008-0.56-0.038-0.838c-0.022-0.208-0.054-0.415-0.144-0.605
			c-0.039-0.083-0.178-0.075-0.245-0.053c-0.016,0.005-0.029,0.018-0.044,0.025c-0.034,0.008-0.066,0.029-0.09,0.052
			c-0.001,0.001-0.002,0.003-0.004,0.004c-0.007,0.008-0.018,0.015-0.021,0.023c-0.003,0.006-0.004,0.013-0.007,0.019
			c-0.022,0.027-0.047,0.052-0.058,0.085c-0.141,0.419-0.187,0.868-0.182,1.308c0,0.051,0.009,0.102,0.011,0.153
			c0.016,0.41,0.067,0.821,0.109,1.209c0.022,0.204,0.329,0.092,0.407,0.007c0.001-0.002,0.002-0.004,0.004-0.005
			c0.079-0.055,0.142-0.137,0.149-0.22c0.001-0.01-0.002-0.02-0.002-0.03c0.043-0.113,0.07-0.233,0.091-0.351
			C345.252,273.591,345.267,273.327,345.27,273.066z"/>
		<path style="fill:#A5A7AA;" d="M344.905,278.545c0.001-0.017-0.009-0.032-0.015-0.048c0-0.002,0.001-0.004,0.001-0.005
			c0.001,0.003,0.002,0.005,0.004,0.008c-0.001-0.003-0.002-0.006-0.004-0.008c0-0.001,0-0.002,0-0.002
			c0.006-0.05,0.003-0.099-0.002-0.149c-0.007-0.074-0.033-0.143-0.064-0.21c-0.007-0.016-0.014-0.031-0.021-0.047
			c-0.015-0.023-0.035-0.039-0.06-0.047c-0.043-0.02-0.093-0.024-0.139-0.013c-0.105,0.026-0.205,0.101-0.241,0.205
			c-0.015,0.044-0.029,0.083-0.036,0.13c-0.004,0.025-0.006,0.05-0.006,0.075c0,0.063,0.006,0.128,0.025,0.188
			c0.012,0.037,0.026,0.076,0.048,0.108c0.02,0.03,0.048,0.071,0.077,0.089c0.114,0.07,0.265,0.02,0.352-0.07
			c0.044-0.046,0.079-0.106,0.084-0.171C344.908,278.568,344.907,278.556,344.905,278.545z"/>
		<path style="fill:#A5A7AA;" d="M357.138,271.173c-0.056-0.286-0.149-0.566-0.268-0.831c-0.1-0.222-0.251-0.514-0.465-0.646
			c-0.031-0.019-0.089,0.011-0.088,0.05c0.004,0.123,0.043,0.24,0.07,0.359c0.032,0.136,0.054,0.275,0.082,0.412
			c0.06,0.285,0.098,0.574,0.133,0.863c0.033,0.276,0.061,0.551,0.074,0.828c0.012,0.264,0.017,0.549,0.111,0.798
			c0.062,0.163,0.273,0.041,0.319-0.068C357.335,272.405,357.247,271.726,357.138,271.173z"/>
		<path style="fill:#A5A7AA;" d="M360.969,280.126c-0.018-0.309-0.433-0.114-0.47,0.1c-0.042,0.243-0.055,0.488-0.07,0.733
			c-0.21,0.335-0.31,0.701-0.408,1.094c-0.145,0.581-0.405,1.161-0.67,1.696c-0.499,1.007-1.287,1.852-1.985,2.724
			c-0.109,0.137-0.066,0.308,0.13,0.282c0.564-0.076,1.017-0.528,1.387-0.925c0.417-0.447,0.848-0.918,1.181-1.432
			C360.883,283.134,361.053,281.597,360.969,280.126z"/>
		<path style="fill:#7596AD;" d="M344.726,259.24c-0.008-0.119-0.182-0.052-0.189,0.04c-0.121,1.767-0.268,3.57-0.069,5.338
			c0.021,0.186,0.317,0.018,0.33-0.107C344.985,262.762,344.849,260.987,344.726,259.24z"/>
		<path style="fill:#7596AD;" d="M347.061,287.088c-0.395-0.381-0.771-0.778-1.035-1.263c-0.226-0.415-0.424-0.857-0.602-1.295
			c-0.165-0.408-0.326-0.819-0.449-1.242c-0.104-0.358-0.244-0.813-0.133-1.184c0.025-0.083-0.092-0.068-0.121-0.018
			c-0.204,0.35-0.201,0.776-0.154,1.166c0.059,0.498,0.187,0.993,0.371,1.46c0.383,0.977,1.01,2.025,1.922,2.589
			C346.976,287.373,347.175,287.198,347.061,287.088z"/>
		<path style="fill:#7596AD;" d="M360.749,276.503c-0.105-0.297-0.235-0.581-0.386-0.857c-0.144-0.264-0.342-0.49-0.537-0.718
			c-0.042-0.049-0.158,0.012-0.133,0.075c0.104,0.253,0.182,0.515,0.286,0.768c0.117,0.285,0.233,0.572,0.333,0.863
			c0.096,0.283,0.171,0.573,0.232,0.865c0.06,0.284,0.12,0.551,0.13,0.843c0.004,0.126,0.185,0.067,0.209-0.021
			C361.05,277.706,360.958,277.094,360.749,276.503z"/>
		<path style="fill:#7596AD;" d="M355.457,287.613c-0.062-0.043-0.134-0.025-0.198-0.004c0.047-0.016-0.015,0.004-0.028,0.008
			c-0.038,0.012-0.069,0.031-0.104,0.051c-0.031,0.017-0.058,0.038-0.087,0.059c-0.032,0.023-0.064,0.044-0.098,0.065
			c-0.009,0.005-0.017,0.01-0.026,0.016c-0.005,0.003-0.014,0.008-0.024,0.013c-0.133,0.07-0.273,0.131-0.413,0.185
			c-0.281,0.109-0.583,0.198-0.822,0.387c-0.05,0.04-0.084,0.148,0.014,0.149c0.302,0.001,0.611-0.076,0.9-0.166
			c0.163-0.051,0.323-0.107,0.475-0.187c0.188-0.099,0.373-0.203,0.456-0.409C355.526,287.721,355.51,287.649,355.457,287.613z"/>
	</g>
	<g>
		<path style="fill:#5D6773;" d="M344.693,5.704c-43.647,9.893-67.507,28.807-114.355,69.544
			c-46.848,40.737-106.499,118.72-106.499,118.72v0.873l12.512,6.402c27.934-44.229,83.22-116.392,132.105-153.055
			S341.492,8.323,343.82,7.159C346.148,5.995,344.693,5.704,344.693,5.704z"/>
		<path style="fill:#5D6773;" d="M275.54,41.451c-8.281,5.45-15.77,11.928-23.203,18.462c-7.805,6.862-15.43,13.928-22.894,21.158
			c-14.915,14.447-29.188,29.546-43.011,45.037c-6.961,7.801-13.711,15.759-20.149,24c-3.296,4.219-6.526,8.489-9.715,12.788
			c-2.608,3.516-5.33,6.992-7.725,10.659c-1.724,2.64-3.424,5.312-5.498,7.697c-1.679,1.931-4.015,4.33-6.778,4.361
			c-2.002,0.022-3.389-1.199-3.949-2.865c-5.548,6.994-8.779,11.219-8.779,11.219v0.873l12.512,6.402
			c27.934-44.229,83.22-116.392,132.105-153.055c7.793-5.845,14.954-10.836,21.502-15.107
			C284.996,35.607,280.175,38.4,275.54,41.451z"/>
		<path style="fill:#89929C;" d="M196.992,118.428c-0.478-1.771-1.602-3.499-3.178-4.478c-0.799-0.496-1.863-0.821-2.803-0.59
			c-0.488,0.12-0.864,0.388-1.161,0.737c-0.254,0.153-0.484,0.37-0.637,0.543c-0.391,0.443-0.906,1.093-0.882,1.724
			c0.01,0.26,0.161,0.365,0.4,0.399c0.448,0.064,0.913,0.04,1.349,0.17c0.496,0.147,0.939,0.472,1.323,0.811
			c0.736,0.65,1.378,1.577,1.77,2.476c0.286,0.655,0.282,1.681,0.98,2.077c0.594,0.337,1.288-0.056,1.728-0.464
			c0.464-0.43,0.814-0.998,1.059-1.579C197.209,119.615,197.171,119.091,196.992,118.428z"/>
		<path style="fill:#89929C;" d="M274.18,43.238c-0.24-0.605-0.608-1.102-1.044-1.578c-0.388-0.424-0.763-0.907-1.304-1.14
			c-0.628-0.271-1.316,0.025-1.813,0.427c-0.264,0.214-0.503,0.452-0.734,0.7c-0.196,0.212-0.377,0.408-0.454,0.678
			c-0.114,0.131-0.225,0.263-0.33,0.393c-0.092,0.114-0.166,0.34,0.04,0.394c1.098,0.284,2,0.919,2.464,1.982
			c0.187,0.428,0.217,1.015,0.763,1.133c0.5,0.108,0.992-0.284,1.365-0.567c0.373-0.283,0.841-0.557,1.089-0.965
			C274.504,44.234,274.366,43.709,274.18,43.238z"/>
		<path style="fill:#A9B2B8;" d="M190.163,118.149c-0.484-0.223-0.997,0.049-1.357,0.373c-1.012,0.911-1.862,1.97-2.709,3.031
			c-0.836,1.049-1.707,2.065-2.604,3.062c-1.239,1.378-2.502,2.741-3.638,4.202c-1.686,1.78-3.31,3.628-4.928,5.466
			c-3.794,4.31-7.669,8.557-11.372,12.946c-3.65,4.326-7.446,8.522-11.201,12.756c-3.762,4.242-7.411,8.568-11.006,12.953
			c-1.763,2.15-3.488,4.325-5.119,6.577c-0.667,0.921-1.377,1.947-1.516,3.105c-0.113,0.947,0.19,2.019,1.309,2.053
			c1.107,0.033,2.093-0.826,2.819-1.56c0.884-0.895,1.618-1.93,2.33-2.963c1.476-2.141,3.087-4.18,4.574-6.314
			c3.233-4.637,6.597-9.156,10.124-13.575c3.527-4.418,7.052-8.852,10.682-13.186c6.965-8.316,14.663-16.001,21.346-24.557
			c0.842-1.078,1.669-2.166,2.476-3.269C190.633,118.894,190.584,118.343,190.163,118.149z"/>
		<path style="fill:#89929C;" d="M172.481,145.213c-0.483-0.665-1.078-1.273-1.732-1.77c-0.656-0.499-1.413-0.878-2.208-1.1
			c-0.796-0.222-1.882-0.327-2.638,0.07c-0.129,0.068-0.436,0.393-0.177,0.518c0.32,0.155,0.69,0.179,1.038,0.24
			c0.368,0.064,0.732,0.167,1.087,0.281c0.694,0.222,1.329,0.591,1.906,1.032c0.586,0.449,1.076,0.985,1.52,1.573
			c0.216,0.286,0.445,0.56,0.659,0.848c0.212,0.284,0.478,0.638,0.808,0.791c0.168,0.078,0.435-0.014,0.479-0.215
			C173.39,146.715,172.92,145.817,172.481,145.213z"/>
		<path style="fill:#A9B2B8;" d="M240.709,68.136c-1.524,1.361-3.213,2.507-4.875,3.689c-1.68,1.195-3.299,2.459-4.866,3.799
			c-3.233,2.764-6.508,5.488-9.596,8.414c-6.244,5.917-11.944,12.38-17.796,18.678c-1.576,1.696-3.122,3.421-4.622,5.184
			c-0.717,0.844-1.454,1.671-2.184,2.503c-0.724,0.826-1.41,1.685-2.14,2.504c-0.417,0.468,0.098,0.864,0.569,0.558
			c0.854-0.554,1.651-1.112,2.402-1.803c0.749-0.689,1.453-1.418,2.148-2.161c1.37-1.464,2.681-2.982,4.053-4.445
			c2.99-3.19,5.994-6.368,8.924-9.614c2.868-3.177,5.855-6.239,8.888-9.259c2.988-2.975,5.999-5.928,9.065-8.823
			c1.687-1.593,3.385-3.174,5.186-4.637c1.746-1.418,3.534-2.801,5.124-4.398C241.203,68.112,240.892,67.973,240.709,68.136z"/>
		<path style="fill:#A9B2B8;" d="M328.642,11.087c-3.856,0.898-7.695,2.078-11.342,3.615c-3.781,1.594-7.429,3.533-11.063,5.433
			c-3.708,1.939-7.384,3.941-11.022,6.009c-3.561,2.025-7.159,4.007-10.582,6.263c-1.902,1.254-3.804,2.512-5.696,3.783
			c-0.912,0.612-1.797,1.241-2.632,1.956c-0.785,0.672-1.556,1.388-2.404,1.981c-0.184,0.129-0.19,0.477,0.105,0.403
			c1.68-0.421,3.094-1.608,4.556-2.491c1.773-1.07,3.546-2.144,5.291-3.26c3.376-2.159,6.828-4.171,10.33-6.118
			c7.223-4.016,14.506-7.881,21.884-11.606c4.093-2.066,8.106-4.314,12.547-5.548C328.859,11.438,328.979,11.009,328.642,11.087z"/>
		<path style="fill:#A9B2B8;" d="M272.293,42.057c0.006-0.08-0.013-0.152-0.057-0.219c-0.02-0.076-0.063-0.137-0.128-0.182
			c-0.047-0.064-0.109-0.107-0.186-0.128c-0.107-0.062-0.223-0.09-0.35-0.084c-0.013-0.001-0.026,0-0.039,0
			c-0.09,0.009-0.179,0.018-0.269,0.027c-0.097,0.027-0.192,0.058-0.287,0.093c-0.115,0.047-0.224,0.115-0.327,0.18
			c-0.123,0.078-0.231,0.18-0.334,0.282c-0.035,0.035-0.069,0.072-0.103,0.108c-0.078,0.068-0.139,0.148-0.182,0.238
			c-0.077,0.111-0.124,0.232-0.141,0.363c-0.009,0.046-0.015,0.071-0.02,0.095c-0.004,0.022-0.008,0.044-0.009,0.067
			c-0.001,0.008-0.001,0.016-0.003,0.024c0.001-0.005,0.002-0.011,0.003-0.016c-0.002,0.042-0.003,0.085,0.004,0.128
			c-0.003,0.107,0.029,0.204,0.095,0.293c0.049,0.048,0.098,0.096,0.147,0.145c0.126,0.081,0.264,0.121,0.414,0.121
			c0.099,0.003,0.233-0.019,0.307-0.027c0.011-0.001,0.022-0.003,0.033-0.004c0.101-0.016,0.196-0.047,0.284-0.094
			c0.149-0.066,0.28-0.159,0.401-0.265c0.003-0.002,0.006-0.003,0.008-0.005c0.058-0.036,0.116-0.073,0.171-0.112
			c0.078-0.067,0.156-0.133,0.233-0.2c0.059-0.076,0.118-0.151,0.177-0.227c0.038-0.08,0.077-0.161,0.116-0.241
			C272.301,42.297,272.315,42.178,272.293,42.057z"/>
		<path style="fill:#FFFFFF;" d="M165.084,147.175c-0.508,0.526-1.099,0.978-1.644,1.462c-0.486,0.431-0.912,0.958-1.339,1.446
			c-0.869,0.992-1.672,2.037-2.505,3.059c-1.846,2.262-3.898,4.33-5.876,6.476c-2.025,2.197-4.065,4.406-5.975,6.704
			c-1.822,2.191-3.517,4.48-5.227,6.758c-0.953,1.27-1.916,2.533-2.885,3.79c-0.47,0.609-0.956,1.204-1.438,1.803
			c-0.501,0.622-1.084,1.247-1.461,1.952c-0.358,0.669,0.369,0.966,0.888,0.612c1.184-0.807,2.12-2.061,3.034-3.151
			c0.909-1.086,1.782-2.198,2.641-3.324c1.718-2.253,3.396-4.538,5.163-6.754c1.849-2.318,3.863-4.496,5.818-6.725
			c0.986-1.124,1.942-2.274,2.925-3.401c0.938-1.076,1.895-2.127,2.761-3.263c0.895-1.175,1.703-2.424,2.493-3.671
			c0.39-0.617,0.789-1.228,1.211-1.823c0.47-0.662,0.837-1.368,1.445-1.931C165.132,147.174,165.101,147.157,165.084,147.175z"/>
		<path style="fill:#FFFFFF;" d="M188.195,119.855c-2.986,2.711-5.68,5.72-8.383,8.71c-1.327,1.468-2.673,2.918-3.909,4.464
			c-1.249,1.563-2.427,3.182-3.67,4.75c-0.181,0.229,0.1,0.368,0.276,0.188c1.428-1.454,2.922-2.837,4.361-4.279
			c1.428-1.431,2.754-2.956,4.101-4.463c2.651-2.966,5.336-5.925,7.629-9.181C188.811,119.745,188.371,119.695,188.195,119.855z"/>
		<path style="fill:#FFFFFF;" d="M194.857,116.016c-0.231-0.23-0.453-0.448-0.733-0.615c-0.285-0.171-0.585-0.313-0.887-0.45
			c-0.511-0.232-1.103-0.362-1.659-0.433c-0.261-0.034-0.528-0.052-0.79-0.035c-0.322,0.021-0.908,0.047-0.958,0.466
			c-0.031,0.262,0.07,0.361,0.223,0.542c0.124,0.147,0.272,0.263,0.419,0.386c0.261,0.219,0.557,0.392,0.831,0.596
			c0.544,0.405,1.101,0.781,1.597,1.246c0.17,0.181,0.328,0.371,0.513,0.54c0.006,0.005,0.007,0.006,0.011,0.01
			c0.065,0.07,0.133,0.14,0.203,0.204c0.093,0.084,0.197,0.141,0.306,0.202c0.668,0.371,1.548-0.22,1.641-0.932
			C195.663,117.062,195.322,116.48,194.857,116.016z"/>
		<path style="fill:#FFFFFF;" d="M267.018,45.826c-0.359,0.291-0.769,0.51-1.141,0.796c-0.38,0.293-0.768,0.575-1.151,0.864
			c-0.741,0.558-1.497,1.089-2.253,1.627c-1.51,1.074-3.049,2.107-4.537,3.211c-1.549,1.15-3.064,2.383-4.496,3.677
			c-1.421,1.283-2.93,2.74-3.906,4.402c-0.156,0.265,0.162,0.415,0.368,0.253c0.796-0.627,1.529-1.335,2.311-1.981
			c0.772-0.638,1.531-1.298,2.29-1.951c1.442-1.241,2.916-2.452,4.433-3.601c1.481-1.121,3.036-2.147,4.494-3.296
			c0.722-0.569,1.447-1.157,2.112-1.793c0.34-0.326,0.666-0.675,0.972-1.033c0.288-0.337,0.45-0.686,0.698-1.042
			C267.306,45.824,267.12,45.743,267.018,45.826z"/>
		<path style="fill:#FFFFFF;" d="M305.504,20.907c-2.142,0.639-3.992,1.922-5.865,3.103c-2.034,1.282-4.174,2.38-6.334,3.434
			c-4.424,2.159-8.635,4.685-12.643,7.547c-1.111,0.793-2.232,1.592-3.289,2.456c-0.547,0.447-1.098,0.891-1.637,1.349
			c-0.555,0.471-1.044,1.024-1.604,1.482c-0.187,0.153-0.042,0.372,0.165,0.235c0.508-0.336,1.076-0.586,1.598-0.905
			c0.523-0.319,1.036-0.654,1.553-0.983c1.01-0.643,1.993-1.32,2.987-1.988c2.019-1.356,4.027-2.727,6.095-4.01
			c2.055-1.275,4.169-2.428,6.271-3.619c2.082-1.18,3.939-2.692,5.973-3.946c2.206-1.359,4.292-3.006,6.752-3.893
			C305.671,21.117,305.698,20.849,305.504,20.907z"/>
		<path style="fill:#FFFFFF;" d="M316.249,15.757c-2.467,0.885-4.783,2.197-7.126,3.359c-0.051,0.025-0.042,0.105,0.019,0.075
			c2.356-1.176,4.675-2.377,7.132-3.334C316.346,15.829,316.333,15.727,316.249,15.757z"/>
	</g>
	<g>
		<g>
			<g>
				<path style="fill:#4B5159;" d="M139.891,309.967c-0.462-1.573-1.789-2.796-2.706-4.106c-1.102-1.574-2.318-3.069-3.408-4.648
					c-0.629-0.912-1.192-1.868-1.822-2.78c-0.606-0.878-1.281-1.928-2.202-2.511c-1.042-0.66-1.822,0.377-2.617,0.947
					c-1.532,1.097-3.521-0.656-4.195-2.001c-0.74-1.476-0.785-3.227-0.726-4.844c0.306-8.426,2.644-16.604,3.698-24.938
					c0.514-4.063,0.797-8.282,0.301-12.361c-0.242-1.992-0.739-3.935-1.478-5.801c-0.656-1.657-1.556-3.191-2.936-4.346
					c-1.266-1.06-2.792-1.742-4.195-2.6c-0.021-0.125-0.143-0.187-0.28-0.174c-0.038-0.024-0.077-0.047-0.115-0.072
					c-0.071-0.046-0.204,0.074-0.125,0.132c0.011,0.008,0.022,0.016,0.033,0.024c-0.041,0.032-0.078,0.07-0.104,0.12
					c-0.757,1.528-1.865,2.875-2.815,4.283c-0.939,1.392-1.907,2.904-2.182,4.59c-0.022,0.132,0.113,0.236,0.234,0.233
					c1.838-0.047,3.522,0.575,4.829,1.883c1.137,1.138,1.876,2.589,2.235,4.15c0.737,3.199,0.068,6.576-0.703,9.703
					c-1.012,4.105-2.342,8.122-3.704,12.121c-1.365,4.008-2.714,8.013-3.924,12.071c-1.236,4.143-2.569,8.257-3.827,12.394
					c-0.629,2.068-1.24,4.142-1.81,6.227c-0.531,1.942-0.99,3.904-1.536,5.842c-1.009,3.587-2.22,7.276-2.063,11.049
					c0.124,2.988,1.29,6.507,4.03,8.092c2.642,1.528,5.67,0.609,8.28-0.485c3.765-1.577,7.287-3.694,10.636-6.015
					c3.291-2.281,6.498-4.731,9.297-7.607c1.774-1.823,3.77-3.52,5.139-5.689C139.65,312.023,140.185,310.968,139.891,309.967z"/>
				<path style="fill:#3D404F;" d="M175.383,306.733c-0.459-1.342-1.173-3.27-2.926-3.008c-0.667,0.1-1.285,0.467-1.838,0.832
					c-0.639,0.423-1.236,0.905-1.868,1.338c-0.788,0.54-1.641,0.99-2.464,1.474c-0.923,0.544-1.842,1.095-2.746,1.67
					c-0.883,0.562-1.784,1.131-2.602,1.786c-0.273,0.218-0.536,0.462-0.7,0.776c-0.117,0.225-0.172,0.471-0.261,0.707
					c-0.236,0.629-0.701,1.038-1.245,1.404c-0.65,0.437-1.352,0.791-2.057,1.129c-0.587,0.282-1.18,0.552-1.77,0.828
					c-0.642,0.301-1.324,0.601-2.035,0.688c-0.302,0.036-0.64,0.031-0.895-0.156c-0.289-0.212-0.526-0.572-0.446-0.942
					c0.137-0.63,0.856-1.086,1.343-1.434c1.546-1.103,2.937-2.396,4.391-3.613c1.449-1.213,3.028-2.513,4.873-3.047
					c0.484-0.14,0.975-0.265,1.439-0.465c0.473-0.204,0.915-0.487,1.354-0.755c0.913-0.558,1.801-1.16,2.659-1.798
					c0.853-0.634,1.677-1.307,2.469-2.015c0.609-0.544,1.364-1.204,1.387-2.092c0.02-0.759-0.524-1.37-1.038-1.862
					c-0.744-0.711-1.586-1.304-2.47-1.827c-0.852-0.505-1.736-0.954-2.594-1.446c-0.896-0.514-1.748-1.093-2.563-1.726
					c-1.596-1.239-3.099-2.614-4.579-3.988c-1.357-1.259-2.671-2.565-3.906-3.945c-2.39-2.669-4.459-5.617-6.022-8.846
					c-0.406-0.839-0.776-1.695-1.115-2.564c-0.046-0.118-0.17-0.179-0.295-0.143c-1.046,0.303-1.947,0.99-2.711,1.748
					c-0.064,0.064-0.127,0.129-0.19,0.195c-0.307-0.765-0.73-1.482-1.304-2.079c-0.813-0.844-1.979-1.392-3.151-1.014
					c-1.052,0.34-1.766,1.285-2.317,2.192c-0.572,0.942-1.001,1.976-1.635,2.879c-0.497,0.708-1.087,1.363-1.633,2.033
					c-0.626,0.768-1.254,1.535-1.882,2.302c-1.129,1.381-2.284,2.749-3.34,4.187c-0.97,1.323-1.888,2.772-2.31,4.375
					c-0.406,1.543-0.233,3.238,0.034,4.792c0.582,3.396,2.049,6.586,3.697,9.585c0.82,1.491,1.699,2.947,2.587,4.397
					c0.9,1.47,1.796,2.94,2.81,4.336c1.043,1.434,2.174,2.803,3.394,4.09c1.124,1.185,2.335,2.28,3.561,3.358
					c1.148,1.01,2.358,1.993,3.753,2.641c1.361,0.632,2.778,0.788,4.236,0.419c2.937-0.742,5.233-2.935,7.504-4.809
					c0.566-0.467,1.145-0.911,1.733-1.349c0.722-0.538,1.423-1.106,2.178-1.6c0.652-0.426,1.337-0.73,2.076-0.969
					c0.658-0.212,1.329-0.399,1.954-0.697c0.554-0.264,1.053-0.62,1.46-1.077c0.624,0.234,1.08,0.754,1.69,1.028
					c0.765,0.344,1.617,0.155,2.344-0.197c0.801-0.388,1.494-0.952,2.2-1.486c0.58-0.439,1.219-0.848,1.685-1.417
					c0.453-0.554,0.656-1.217,0.648-1.931C175.923,308.65,175.699,307.657,175.383,306.733z"/>
				<path style="opacity:0.54;fill:#5E6275;" d="M175.383,306.733c-0.459-1.342-1.173-3.27-2.926-3.008
					c-0.667,0.1-1.285,0.467-1.838,0.832c-0.639,0.423-1.236,0.905-1.868,1.338c-0.788,0.54-1.641,0.99-2.464,1.474
					c-0.923,0.544-1.842,1.095-2.746,1.67c-0.883,0.562-1.784,1.132-2.602,1.786c-0.273,0.218-0.536,0.462-0.7,0.776
					c-0.117,0.225-0.172,0.471-0.261,0.707c-0.236,0.629-0.701,1.038-1.245,1.404c-0.65,0.437-1.353,0.791-2.057,1.129
					c-0.587,0.282-1.18,0.552-1.77,0.828c-0.643,0.301-1.324,0.601-2.035,0.687c-0.302,0.037-0.64,0.031-0.895-0.156
					c-0.289-0.212-0.527-0.572-0.446-0.942c0.137-0.63,0.856-1.086,1.343-1.434c1.546-1.103,2.937-2.396,4.391-3.613
					c1.449-1.213,3.028-2.513,4.873-3.047c0.484-0.14,0.975-0.265,1.439-0.466c0.473-0.204,0.915-0.487,1.354-0.755
					c0.913-0.558,1.801-1.16,2.66-1.798c0.853-0.634,1.677-1.307,2.469-2.015c0.609-0.545,1.364-1.204,1.387-2.092
					c0.02-0.759-0.524-1.37-1.038-1.862c-0.744-0.711-1.586-1.305-2.47-1.827c-0.852-0.505-1.736-0.954-2.594-1.446
					c-0.896-0.513-1.748-1.093-2.563-1.726c-1.596-1.239-3.099-2.614-4.578-3.988c-1.357-1.259-2.671-2.565-3.906-3.945
					c-2.39-2.669-4.459-5.617-6.022-8.846c-0.406-0.839-0.776-1.696-1.115-2.564c-0.046-0.118-0.17-0.179-0.295-0.143
					c-1.046,0.303-1.947,0.99-2.711,1.748c-0.064,0.064-0.127,0.129-0.19,0.195c-0.307-0.765-0.73-1.482-1.304-2.079
					c-0.443-0.46-0.992-0.825-1.587-1.007c0.638,0.339,1.159,0.911,1.452,1.607c0.544,1.29,0.279,2.732-0.428,3.903
					c-0.662,1.095-1.631,1.957-2.53,2.852c-0.785,0.78-1.576,1.632-1.905,2.706c0.22-0.019,0.431-0.078,0.635-0.18
					c1.161-0.584,2.02-2.148,3.465-2.055c1.362,0.088,2.157,1.612,2.701,2.682c0.317,0.624,0.591,1.267,0.898,1.896
					c0.348,0.713,0.759,1.4,1.155,2.087c0.94,1.631,1.939,3.23,3.039,4.758c2.159,2.997,4.806,5.921,8.215,7.495
					c0.991,0.457,2.74,0.561,3.091,1.82c0.456,1.634-1.726,2.451-2.991,2.299c-1.569-0.189-2.861-1.286-3.956-2.344
					c-0.999-0.965-1.908-2.083-3.008-2.944c0.151,0.465,0.403,0.894,0.703,1.282c0.84,1.091,2.016,1.936,2.652,3.181
					c0.325,0.636,0.449,1.306,0.27,2.006c-0.185,0.723-0.628,1.387-1.182,1.881c-2.423,2.164-5.952,0.031-8.03-1.578
					c-1.217-0.943-2.335-2.004-3.44-3.074c-1.305-1.265-2.586-2.532-3.736-3.944c-1.251-1.535-2.382-3.172-3.336-4.908
					c-0.369-0.672-0.77-1.367-1.006-2.1c-0.167-0.518-0.286-1.05-0.453-1.568c-0.139-0.43-0.308-0.985-0.68-1.276
					c-0.369-0.289-0.833-0.004-1.072,0.318c-0.386,0.52-0.532,1.215-0.635,1.841c-0.105,0.636-0.147,1.284-0.159,1.928
					c-0.016,0.846,0.032,1.666,0.231,2.491c0.225,0.932,0.578,1.828,0.968,2.703c0.707,1.585,1.419,3.183,2.226,4.719
					c1.587,3.02,3.556,5.857,5.839,8.393c2.258,2.507,4.872,4.786,7.901,6.311c0.73,0.367,1.489,0.704,2.27,0.946
					c0.907,0.281,1.844,0.306,2.764,0.075c0.891-0.224,1.759-0.614,2.552-1.075c0.724-0.421,1.434-0.875,2.223-1.167
					c0.726-0.268,1.55-0.377,2.276-0.051c0.324,0.145,0.606,0.358,0.817,0.626c0.331-0.248,0.666-0.491,1.013-0.718
					c0.652-0.426,1.337-0.73,2.076-0.969c0.658-0.212,1.329-0.399,1.954-0.697c0.554-0.264,1.053-0.62,1.46-1.077
					c0.624,0.234,1.08,0.755,1.69,1.028c0.765,0.344,1.617,0.155,2.344-0.197c0.801-0.388,1.494-0.952,2.2-1.486
					c0.58-0.439,1.219-0.848,1.685-1.417c0.453-0.554,0.656-1.217,0.648-1.931C175.923,308.65,175.699,307.657,175.383,306.733z"/>
				<path style="fill:#4B5159;" d="M131.049,312.983c-0.361-2.871-2.408-5.953-3.518-8.524c-0.579-1.342-1.169-2.702-2.086-3.841
					c-1.416-1.756-3.886-2.054-5.493-3.583c-1.22-1.16-1.784-2.847-2.113-4.499c-0.464-2.329-0.543-4.734-0.243-7.089
					c0.266-2.086,1.358-3.92,0.994-6.078c-0.09-0.533-0.339-1.143-0.869-1.247c-0.534-0.104-0.991,0.37-1.31,0.811
					c-4.441,6.148-6.712,14.783-8.575,22.027c-1.149,4.468-2.334,9.002-2.671,13.618c-0.312,4.277-0.184,15.276,6.768,14.026
					c1.062-0.191,2.038-0.694,2.989-1.202c5.066-2.708,9.971-5.774,14.297-9.553C130.86,316.416,131.27,314.739,131.049,312.983z"/>
				<path style="fill:#A9B2B8;" d="M178.123,284.525c-0.865-1.181-2.026-2.143-3.157-3.057c-1.249-1.01-2.431-2.05-3.562-3.197
					c-3.081-3.123-5.774-6.607-8.9-9.684c-0.732-0.721-1.508-1.426-2.146-2.234c-0.444-0.561-0.947-1.118-1.736-0.954
					c-1.139,0.236-2.193,1.264-3.051,2.025c-0.501,0.388-0.979,0.8-1.448,1.114c-1.656,1.109-3.116,2.468-4.727,3.637
					c-1.319,0.957-2.718,1.905-3.72,3.211c-0.951,1.24-1.058,2.734-0.752,4.23c0.345,1.689,1.145,3.28,2.008,4.759
					c0.851,1.458,1.803,2.872,2.8,4.234c2.363,3.228,5.196,6.161,8.558,8.354c1.689,1.101,3.493,2.102,5.413,2.739
					c0.781,0.259,1.552,0.46,2.377,0.32c0.707-0.12,1.373-0.461,1.955-0.869c1.296-0.907,2.279-2.181,3.286-3.381
					c1.268-1.511,2.751-2.821,4.082-4.274c0.548-0.598,1.116-1.145,1.712-1.695c0.589-0.544,1.21-1.125,1.593-1.84
					C179.336,286.786,178.859,285.529,178.123,284.525z"/>
				<path style="fill:#A9B2B8;" d="M178.123,284.525c-0.865-1.181-2.026-2.143-3.157-3.057c-1.249-1.01-2.431-2.05-3.562-3.197
					c-3.081-3.123-5.774-6.607-8.9-9.684c-0.732-0.721-1.508-1.426-2.146-2.234c-0.444-0.561-0.947-1.117-1.736-0.954
					c-1.139,0.236-2.193,1.264-3.051,2.025c-0.501,0.388-0.979,0.8-1.448,1.114c-1.656,1.109-3.116,2.468-4.727,3.637
					c-1.319,0.957-2.718,1.904-3.72,3.211c-0.951,1.24-1.058,2.734-0.752,4.23c0.345,1.689,1.145,3.28,2.008,4.759
					c0.851,1.458,1.803,2.872,2.8,4.234c2.363,3.228,5.196,6.161,8.558,8.354c1.689,1.101,3.493,2.102,5.413,2.739
					c0.781,0.259,1.552,0.46,2.377,0.32c0.707-0.12,1.373-0.461,1.955-0.869c1.296-0.907,2.279-2.181,3.286-3.381
					c1.268-1.511,2.751-2.821,4.082-4.274c0.548-0.598,1.116-1.145,1.712-1.695c0.589-0.544,1.21-1.125,1.593-1.84
					C179.336,286.786,178.859,285.529,178.123,284.525z M166.595,280.479c-0.477-0.108-0.97-0.261-1.463-0.267
					c-0.48-0.006-0.97,0.279-1.37,0.518c-2.133,1.276-3.581,3.435-5.426,5.057c-0.499,0.439-1.003,0.88-1.437,1.385
					c-0.39,0.454-0.787,1.026-0.816,1.644c-0.051,1.119,0.889,2.286,0.409,3.392c-0.175,0.403-0.534,0.704-0.99,0.606
					c-0.463-0.099-0.846-0.492-1.157-0.823c-0.961-1.026-1.853-2.127-2.694-3.252c-0.945-1.265-1.84-2.562-2.497-4.002
					c-0.616-1.351-1.069-2.766-1.655-4.129c-0.263-0.612-0.53-1.259-0.544-1.935c-0.011-0.55,0.151-1.089,0.419-1.566
					c0.59-1.047,1.575-1.808,2.45-2.603c1.137-1.034,2.21-2.142,3.321-3.204c0.903-0.863,1.825-1.706,2.764-2.53
					c0.179-0.258,0.374-0.505,0.6-0.717c0.236-0.222,0.531-0.423,0.87-0.389c0.299,0.03,0.533,0.239,0.715,0.463
					c0.273,0.335,0.479,0.721,0.691,1.096c0.296,0.523,0.602,1.037,0.937,1.536c0.859,1.28,1.844,2.469,2.885,3.604
					c0.511,0.557,1.036,1.101,1.567,1.64c0.346,0.352,0.678,0.733,1.074,1.031c0.677,0.509,1.391,0.968,2.053,1.498
					c0.43,0.345,1.246,0.929,1.193,1.569C168.422,280.963,167.094,280.593,166.595,280.479z"/>
				<path style="fill:#434553;" d="M182.715,283.566c-1.25-1.24-2.665-2.311-3.995-3.462c-3.863-3.344-7.554-6.888-11.055-10.609
					c-1.785-1.898-3.533-3.835-5.249-5.796c-0.742-0.848-1.493-1.694-2.189-2.581c-0.466-0.594-0.977-1.273-1.66-1.627
					c-1.199-0.623-2.602,0.293-2.669,1.603c-0.054,1.066,0.476,2.145,0.929,3.076c1.085,2.227,2.512,4.515,4.264,6.227
					c0.034,0.034,0.069,0.067,0.104,0.1c0.267,0.337,0.536,0.673,0.806,1.006c4.56,5.634,9.859,10.595,15.456,15.185
					c1.272,1.043,2.656,2.43,4.333,2.741c1.447,0.268,3.169-0.769,3.069-2.372C184.774,285.683,183.639,284.483,182.715,283.566z"/>
				<path style="fill:#5E6275;" d="M182.489,278.444c-1.426-1.54-2.748-3.193-4.117-4.783c-1.166-1.354-2.346-2.7-3.472-4.087
					c-1.38-1.7-2.723-3.429-4.244-5.008c-1.495-1.553-3.251-3.239-5.386-3.834c-2.081-0.579-3.82,0.506-4.724,2.228
					c-0.432,0.16-0.837,0.653-0.594,1.061c0.04,0.067,0.082,0.132,0.123,0.199c0,0.063,0.028,0.103,0.074,0.12
					c2.042,3.372,4.488,6.481,7.19,9.348c2.695,2.859,5.532,5.665,8.51,8.23c1.667,1.436,3.411,2.736,5.326,3.822
					c0.338,0.191,0.706,0.023,0.968-0.216c1.008-0.917,2.134-2.204,2.392-3.583C184.805,280.498,183.356,279.381,182.489,278.444z"
					/>
				<path style="fill:#434553;" d="M183.099,273.895c-0.432-0.632-0.99-1.21-1.387-1.709c-1.078-1.357-2.189-2.688-3.332-3.991
					c-1.365-1.557-2.775-3.075-4.228-4.55c-1.043-1.059-2.644-3.433-4.328-3.245c-0.4,0.045-0.779,0.198-1.145,0.363
					c-1.754,0.79-4.36,1.912-2.645,4.022c0.51,0.627,1.066,1.215,1.578,1.842c0.389,0.477,0.776,0.957,1.18,1.419
					c0.215,0.29,0.433,0.579,0.659,0.862c1.479,1.855,3.127,3.557,4.833,5.203c0.865,0.835,1.742,1.659,2.608,2.493
					c0.771,0.742,1.611,1.606,2.575,2.094c0.855,0.432,1.759,0.122,2.471-0.442c0.694-0.55,1.529-1.24,1.757-2.137
					C183.893,275.336,183.57,274.584,183.099,273.895z"/>
				<path style="fill:#A9B2B8;" d="M124.071,253.163c-0.267-1.499-0.702-2.948-1.363-4.321c-0.336-0.698-0.725-1.365-1.196-1.98
					c-0.234-0.306-0.478-0.627-0.756-0.895c-0.279-0.269-0.638-0.464-0.948-0.699c-0.378-0.286-1.177,0.323-0.87,0.747
					c0.205,0.282,0.325,0.58,0.501,0.875c0.169,0.284,0.39,0.543,0.567,0.824c0.352,0.561,0.678,1.151,0.953,1.754
					c0.552,1.209,0.937,2.511,1.199,3.812c0.563,2.795,0.495,5.654,0.24,8.48c-0.613,6.777-2.477,13.352-3.599,20.047
					c-0.313,1.866-0.547,3.749-0.547,5.644c0,1.899,0.348,3.657,0.911,5.46c0.199,0.637,1.134,0.04,1.083-0.475
					c-0.176-1.772-0.131-3.612-0.079-5.391c0.049-1.68,0.218-3.357,0.474-5.017c0.519-3.358,1.261-6.678,1.942-10.005
					C123.835,265.905,125.184,259.408,124.071,253.163z"/>
				<path style="fill:#A9B2B8;" d="M118.182,325.561c-0.568-0.436-1.396-0.127-2.003,0.042c-0.922,0.257-1.878,0.311-2.791-0.004
					c-0.934-0.322-1.768-0.98-2.444-1.688c-1.511-1.582-2.745-3.748-3.222-5.895c-0.471-2.118,0.047-4.512-1.105-6.451
					c-0.245-0.412-0.925-0.137-1.156,0.122c-0.843,0.947-1.154,2.244-1.345,3.476c-0.477,1.168-0.542,2.525-0.605,3.773
					c-0.121,2.394-0.237,4.913,0.268,7.274c0.353,1.651,1.194,3.241,2.587,4.239c1.311,0.94,2.956,1.203,4.527,0.972
					c1.467-0.215,2.939-0.71,4.283-1.329c1.228-0.566,2.735-1.371,3.269-2.702C118.669,326.834,118.71,325.967,118.182,325.561z"/>
				<path style="fill:#A9B2B8;" d="M131.013,309.427c-0.233-0.404-0.459-0.801-0.654-1.188c-0.866-1.715-1.655-3.469-2.363-5.255
					c-0.566-1.429-0.927-3.235-2.026-4.378c-1.593-1.659-2.71,1.164-2.888,2.678c-0.178,1.515,0.199,3.091,0.596,4.543
					c0.332,1.215,0.754,2.402,1.201,3.578c0.661,1.738,1.522,3.462,1.804,5.316c0.336,2.215-0.91,4.046-1.318,6.151
					c-0.062,0.317,0.262,0.497,0.52,0.519c1.72,0.144,3.211-0.881,4.349-2.074c1.199-1.257,2.385-2.831,2.596-4.601
					C133.051,312.856,131.964,311.075,131.013,309.427z"/>
				<path style="fill:#A9B2B8;" d="M152.412,318.928c-0.833,0.195-1.684,0.409-2.544,0.274c-0.736-0.115-1.394-0.478-1.99-0.909
					c-1.682-1.216-3.087-2.812-4.417-4.392c-2.685-3.189-5.265-6.48-7.51-9.998c-1.116-1.749-2.149-3.562-3.019-5.447
					c-0.909-1.97-1.859-3.982-1.917-6.192c-0.055-2.079,1.161-3.538,2.655-4.841c1.67-1.457,3.429-2.811,5.129-4.232
					c1.44-1.203,2.9-2.466,4.097-3.92c0.792-0.962,2.01-2.619,1.081-3.85c-0.085-0.112-0.278,0.027-0.256,0.144
					c0.283,1.523-1.013,2.927-1.997,3.915c-1.311,1.315-2.773,2.49-4.203,3.671c-1.698,1.402-3.435,2.774-5.021,4.305
					c-1.35,1.302-2.398,2.841-2.297,4.783c0.108,2.07,0.995,4.034,1.856,5.888c0.905,1.95,1.877,3.862,2.973,5.713
					c2.195,3.706,4.851,7.09,7.61,10.388c1.44,1.722,2.966,3.521,4.812,4.826c1.537,1.087,3.282,1.193,5.012,0.487
					C152.791,319.409,152.884,318.818,152.412,318.928z"/>
				<path style="fill:#A9B2B8;" d="M158.448,315.84c-1.261,0.687-2.395,1.581-3.649,2.28c-0.082,0.046-0.077,0.172,0.032,0.127
					c1.326-0.545,2.565-1.287,3.79-2.026C158.872,316.071,158.737,315.683,158.448,315.84z"/>
				<path style="fill:#A9B2B8;" d="M168.851,312.251c-0.042-0.506-0.191-1.016-0.39-1.482c-0.406-0.953-1.021-1.934-1.929-2.478
					c-0.508-0.304-1.041-0.375-1.604-0.189c-0.199,0.066-0.465,0.541-0.121,0.595c0.407,0.064,0.793,0.329,1.114,0.638
					c0.351,0.337,0.737,0.89,0.997,1.373c0.262,0.486,0.483,1.034,0.615,1.61c0.054,0.237,0.1,0.48,0.142,0.719
					c0.024,0.137,0.006,0.302-0.031,0.529c-0.032,0.2,0.164,0.334,0.339,0.338c0.226,0.006,0.444-0.139,0.565-0.322
					C168.783,313.231,168.886,312.669,168.851,312.251z"/>
				<path style="fill:#A9B2B8;" d="M164.014,313.811c-0.029-0.202-0.073-0.402-0.13-0.597c-0.124-0.426-0.305-0.832-0.563-1.195
					c-0.238-0.336-0.529-0.641-0.902-0.823c-0.205-0.1-0.411-0.175-0.643-0.171c-0.182,0.003-0.58,0.071-0.586,0.308
					c-0.005,0.17,0.16,0.259,0.284,0.357c0.058,0.046,0.117,0.089,0.175,0.134c0.033,0.026,0.064,0.052,0.095,0.08
					c0.012,0.01,0.012,0.01,0.016,0.014c0.004,0.004,0.003,0.005,0.015,0.017c0.243,0.263,0.439,0.554,0.603,0.872
					c0.008,0.016,0.009,0.018,0.012,0.023c0.002,0.005,0.002,0.005,0.008,0.02c0.022,0.052,0.044,0.104,0.064,0.156
					c0.031,0.079,0.063,0.159,0.093,0.238c0.071,0.185,0.13,0.374,0.177,0.566c0.042,0.172,0.074,0.346,0.095,0.522
					c0.002,0.016,0.003,0.032,0.005,0.048c0,0.042,0.004,0.085,0.006,0.126c0.009,0.152,0.027,0.275,0.1,0.411
					c0.099,0.185,0.393,0.172,0.553,0.12c0.235-0.076,0.406-0.244,0.504-0.468C164.097,314.337,164.048,314.052,164.014,313.811z"/>
				<path style="fill:#34383C;" d="M159.847,306.645c-0.793-0.71-1.684-1.29-2.516-1.956c-0.845-0.677-1.66-1.39-2.459-2.122
					c-1.602-1.469-3.098-3.044-4.561-4.65c-2.936-3.223-5.785-6.607-8.095-10.314c-0.619-0.993-1.224-2.006-1.731-3.062
					c-0.229-0.477-0.433-0.966-0.646-1.451c-0.143-0.325-0.272-0.686-0.522-0.946c-0.175-0.181-0.559,0.072-0.429,0.301
					c0.394,0.696,0.506,1.576,0.808,2.317c0.394,0.965,0.866,1.894,1.391,2.794c1.131,1.942,2.406,3.796,3.796,5.562
					c2.674,3.4,5.564,6.672,8.773,9.577c0.928,0.839,1.888,1.642,2.883,2.4c0.952,0.726,1.899,1.456,2.994,1.952
					C159.735,307.14,160.036,306.814,159.847,306.645z"/>
				<path style="fill:#34383C;" d="M154.516,312.554c-0.657-0.771-1.561-1.241-2.439-1.717c-0.943-0.512-1.862-1.041-2.744-1.653
					c-1.861-1.29-3.602-2.76-5.234-4.329c-3.257-3.131-6.112-6.663-8.539-10.47c-1.305-2.047-2.72-4.271-2.941-6.748
					c-0.021-0.232-0.407-0.028-0.421,0.136c-0.189,2.208,0.859,4.293,1.926,6.158c1.129,1.973,2.388,3.855,3.783,5.649
					c2.784,3.58,5.995,6.96,9.669,9.636c2.011,1.464,4.226,2.628,6.424,3.781C154.221,313.113,154.736,312.812,154.516,312.554z"/>
				<path style="fill:#A9B2B8;" d="M151.339,313.58c-0.972-0.241-1.806-0.775-2.628-1.329c-0.826-0.556-1.679-1.071-2.499-1.636
					c-1.707-1.176-3.329-2.52-4.879-3.894c-3.047-2.7-5.779-5.937-7.735-9.517c-0.584-1.068-1.072-2.177-1.537-3.3
					c-0.402-0.969-1.05-1.949-1.064-3.026c-0.004-0.302-0.447-0.124-0.472,0.1c-0.108,0.983,0.251,1.892,0.59,2.795
					c0.366,0.973,0.696,1.947,1.129,2.895c0.91,1.991,2.062,3.817,3.398,5.548c2.591,3.355,5.753,6.247,9.24,8.654
					c0.993,0.686,2.046,1.274,3.062,1.924c0.932,0.596,1.891,1.19,2.975,1.458C151.292,314.343,151.801,313.694,151.339,313.58z"/>
				<path style="fill:#434553;" d="M120.724,309.337c-0.877-0.831-1.989-1.271-3.141-1.373c-0.056-0.057-0.106-0.118-0.169-0.171
					c-0.286-0.241-0.652-0.281-1.023-0.292c-0.77-0.021-1.544,0.206-2.236,0.526c-1.507,0.696-2.621,1.917-3.281,3.434
					c-1.246,2.865-0.011,6.15,2.64,7.71c1.231,0.724,2.704,1.03,4.1,0.644c1.45-0.4,2.653-1.354,3.481-2.6
					C122.677,314.833,122.911,311.409,120.724,309.337z"/>
				<g>
					<path style="fill:#A9B2B8;" d="M118.749,312.162c-0.376-1.507-1.554-2.74-3.196-2.643c-1.381,0.082-2.676,0.8-3.452,1.95
						c-0.693,1.027-0.848,2.417-0.43,3.579c0.212,0.589,0.549,1.135,0.995,1.56c0.026,0.033,0.049,0.068,0.077,0.101
						c1.292,1.491,3.646,1.34,4.96-0.031C118.825,315.508,119.134,313.701,118.749,312.162z"/>
					<path style="fill:#A9B2B8;" d="M116.089,315.805c-0.008,0.006-0.018,0.014-0.027,0.021c0,0,0,0,0,0
						c0.01-0.004,0.019-0.01,0.029-0.015C116.1,315.805,116.102,315.802,116.089,315.805z"/>
					<path style="fill:#A9B2B8;" d="M116.191,315.734c-0.004,0.002-0.011,0.006-0.02,0.012c-0.011,0.011-0.023,0.023-0.037,0.038
						c0.004-0.003,0.008-0.005,0.012-0.008c0.005-0.004,0.01-0.008,0.015-0.012c0.008-0.007,0.016-0.014,0.023-0.022
						C116.187,315.739,116.189,315.737,116.191,315.734z"/>
				</g>
			</g>
			<path style="opacity:0.54;fill:#A9B2B8;" d="M158.832,272.292c-0.054-0.878-0.111-1.9-0.421-2.734
				c-0.289-0.776-1.061-1.107-1.803-0.702c-0.514,0.281-0.79,0.752-0.988,1.265c-1.186,0.946-2.273,2.03-3.385,3.053
				c-0.715,0.658-1.42,1.324-2.113,2.004c-0.647,0.635-1.386,1.27-1.825,2.076c-0.802,1.474-0.555,3.098,0,4.611
				c0.496,1.353,1.015,2.812,2.008,3.891c0.927,1.007,2.211,1.452,3.292,0.384c0.778-0.768,1.084-1.91,1.425-2.915
				c0.436-1.288,1.254-2.397,1.978-3.534c0.829-1.3,1.541-2.673,1.744-4.221C158.881,274.427,158.897,273.34,158.832,272.292z"/>
			<path style="fill:#A9B2B8;" d="M175.476,287.295c-0.373-1.028-1.44-1.811-2.248-2.485c-0.549-0.458-1.098-0.91-1.655-1.349
				c-0.346-0.506-0.755-0.953-1.212-1.376c-0.548-0.507-1.26-0.972-2.028-0.673c-1.763,0.686-0.691,3.199-0.575,4.5
				c0.087,0.987-0.294,1.734-0.771,2.567c-0.492,0.86-0.997,1.717-1.592,2.51c-0.523,0.697-1.196,1.503-2.036,1.82
				c-0.93,0.351-1.737,0.024-2.641-0.152c-0.74-0.145-1.56,0.108-1.776,0.91c-0.152,0.566,0.165,1.124,0.498,1.56
				c0.784,1.025,1.865,1.835,2.913,2.572c0.704,0.495,1.462,0.953,2.329,1.078c1.129,0.163,2.026-0.365,2.859-1.069
				c0.855-0.723,1.603-1.552,2.354-2.38c0.722-0.794,1.503-1.528,2.274-2.274c0.882-0.853,1.736-1.731,2.446-2.735
				C175.218,289.465,175.866,288.371,175.476,287.295z"/>
			<path style="fill:#A9B2B8;" d="M165.45,309.827c-0.152-0.217-0.408-0.222-0.643-0.194c-0.327,0.04-0.663,0.189-0.926,0.384
				c-0.136,0.101-0.263,0.215-0.377,0.342c-0.066,0.033-0.132,0.063-0.197,0.103c-0.115,0.071-0.217,0.163-0.316,0.253
				c-0.109,0.099-0.228,0.219-0.3,0.344c-0.1,0.172-0.152,0.362-0.066,0.55c0.075,0.165,0.259,0.283,0.447,0.266
				c0.124-0.011,0.248-0.02,0.37-0.047c0.131-0.029,0.259-0.073,0.386-0.116c0.22-0.075,0.419-0.187,0.619-0.303
				c0.383-0.221,0.728-0.538,0.966-0.912C165.537,310.302,165.592,310.029,165.45,309.827z"/>
			<g>
				<path style="fill:#A9B2B8;" d="M173.932,304.686c-0.285-0.338-0.675-0.447-1.1-0.489c-0.96-0.096-1.828,0.476-2.467,1.135
					c-0.27,0.278-0.5,0.589-0.719,0.908c-0.684,0.321-1.36,0.763-1.646,1.448c-0.182,0.437-0.099,0.799,0.103,1.207
					c0.19,0.384,0.42,0.759,0.677,1.101c0.103,0.137,0.201,0.276,0.295,0.419c0.011,0.017,0.018,0.027,0.025,0.036
					c0.001,0.005,0.002,0.008,0.005,0.016c0.052,0.148,0.118,0.291,0.185,0.432c0.213,0.443,0.558,0.796,1.083,0.783
					c0.834-0.022,1.446-0.754,1.878-1.386c0.473-0.693,0.851-1.467,1.185-2.235c0.226-0.521,0.429-1.063,0.479-1.631
					c0.125-0.281,0.217-0.574,0.246-0.877C174.187,305.26,174.126,304.916,173.932,304.686z"/>
				<path style="fill:#A9B2B8;" d="M169.702,307.748c0.002,0.003,0.003,0.005,0.004,0.008c0.021-0.016,0.037-0.041,0.04-0.068
					c-0.009,0.01-0.019,0.02-0.028,0.03C169.713,307.727,169.708,307.737,169.702,307.748z"/>
			</g>
			<path style="fill:#A9B2B8;" d="M169.456,270.823c-0.598-1.011-1.31-1.945-1.929-2.942c-0.629-1.012-1.103-2.154-1.542-3.26
				c-0.374-0.943-0.407-2.106-1.223-2.803c-0.275-0.235-0.814-0.081-1.064,0.112c-0.018,0.014-0.033,0.029-0.05,0.043
				c-0.033-0.008-0.067-0.014-0.101-0.015c-1.137-0.031-1.716,1.29-1.799,2.248c-0.13,1.515,0.79,2.948,1.577,4.168
				c1.46,2.263,3.057,4.932,5.625,6.059c0.45,0.198,1.015-0.228,1.251-0.563C170.787,273.042,169.896,271.566,169.456,270.823z"/>
			<path style="fill:#A9B2B8;" d="M171.816,264.147c-0.282-0.876-0.716-1.684-1.046-2.539c-0.087-0.226-0.26-0.355-0.509-0.357
				c-0.014,0-0.026,0.003-0.039,0.003c-1.426-0.443-2.841,0.93-2.962,2.298c-0.106,1.194,0.973,2.199,1.819,2.88
				c0.45,0.362,0.934,0.724,1.46,0.968c0.478,0.222,0.935-0.011,1.232-0.413C172.366,266.183,172.097,265.017,171.816,264.147z"/>
			<path style="fill:#A9B2B8;" d="M179.141,272.61c-0.424-1.061-1.373-1.699-2.178-2.455c-0.604-0.624-1.083-1.524-2.063-1.53
				c-0.482-0.003-0.955,0.312-1.161,0.741c-0.126,0.264-0.118,0.557,0.045,0.759c-0.007,0.047-0.013,0.093-0.017,0.14
				c-0.037,0.388,0.155,0.762,0.337,1.092c0.365,0.663,0.909,1.241,1.454,1.761c0.426,0.406,0.881,0.871,1.398,1.161
				c0.241,0.135,0.482,0.236,0.762,0.246c0.426,0.014,0.856-0.191,1.146-0.497C179.232,273.639,179.338,273.104,179.141,272.61z"/>
			<path style="fill:#A9B2B8;" d="M173.906,287.191c-0.372-0.342-0.847-0.558-1.257-0.852c-0.389-0.28-0.731-0.603-1.087-0.922
				c-0.256-0.229-0.731,0.103-0.809,0.362c-0.071,0.237-0.093,0.464-0.073,0.683c-0.133,0.1-0.244,0.215-0.311,0.336
				c-0.388,0.698-0.666,1.448-1.035,2.156c-0.276,0.53-0.617,1.024-0.932,1.53c-0.69,1.108-1.428,2.349-1.287,3.7
				c0.061,0.585,0.926,0.574,1.296,0.397c1.288-0.614,2.134-1.78,2.967-2.891c0.078-0.103,0.155-0.206,0.234-0.309
				c0.084-0.109,0.086-0.112,0.007-0.009c0.06-0.075,0.12-0.149,0.18-0.223c0.245-0.301,0.494-0.598,0.741-0.896
				c0.524-0.634,1.032-1.28,1.477-1.972C174.261,287.902,174.232,287.49,173.906,287.191z"/>
			<path style="fill:#5E6275;" d="M131.841,300.381c-0.475-1.582-0.72-3.152-0.931-4.793c-0.247-1.922-0.546-3.813-0.31-5.753
				c0.103-0.849,0.308-1.583,0.651-2.363c0.345-0.786,0.684-1.584,0.714-2.456c0.022-0.632-0.625-0.673-1.073-0.518
				c-1.07,0.37-1.679,1.478-2.037,2.5c-0.156,0.129-0.306,0.265-0.433,0.418c-0.393,0.473-0.695,1.025-0.939,1.586
				c-0.495,1.137-0.658,2.474-0.657,3.705c0.001,2.865,1.198,5.721,2.198,8.359c0.455,1.201,1.008,2.798,2.151,3.518
				c0.37,0.233,0.961-0.078,1.069-0.479C132.584,302.839,132.208,301.607,131.841,300.381z"/>
			<path style="fill:#5E6275;" d="M140.551,274.624c-0.007-0.078-0.008-0.136-0.034-0.206c-0.074-0.206-0.185-0.37-0.371-0.494
				c-0.188-0.125-0.396-0.188-0.62-0.201c-0.398-0.022-0.82,0.147-1.135,0.384c-0.524,0.393-0.909,0.951-1.133,1.564
				c-0.095,0.259-0.169,0.55-0.154,0.827c0.014,0.263,0.041,0.431,0.17,0.663c0.091,0.163,0.255,0.273,0.433,0.324
				c0.018,0.005,0.035,0.009,0.053,0.013c0.09,0.019,0.199,0.046,0.292,0.039c0.178,0,0.348-0.036,0.511-0.109
				c0.18-0.08,0.338-0.191,0.474-0.332c0.124-0.128,0.216-0.276,0.277-0.443c0.008-0.021,0.008-0.043,0.014-0.064
				c0.178-0.132,0.349-0.275,0.506-0.428c0.264-0.257,0.453-0.556,0.606-0.887c0.064-0.139,0.098-0.291,0.117-0.442
				C140.566,274.761,140.557,274.696,140.551,274.624z"/>
			<path style="fill:#5E6275;" d="M147.826,293.439c-0.337-1.312-0.988-2.58-1.583-3.79c-0.633-1.287-1.325-2.546-1.992-3.816
				c-0.603-1.148-0.883-2.823-2.006-3.611c-1.264-0.888-2.458,0.588-3.057,1.55c-0.01,0.016-0.017,0.033-0.026,0.05
				c-0.82,0.513-1.634,1.047-2.406,1.611c-1.328,0.971-2.666,2.047-3.505,3.491c-0.967,1.663-0.837,3.467-0.318,5.265
				c0.444,1.535,1.075,3.061,1.764,4.503c0.621,1.301,1.559,3.17,3.124,3.49c0.501,0.102,1.203-0.278,1.211-0.849
				c0.015-1.107-0.351-2.105-0.559-3.174c-0.203-1.043,0.059-1.754,0.881-2.435c0.892-0.739,1.919-1.473,3.072-1.722
				c0.959-0.207,1.622,0.073,2.443,0.505c0.567,0.299,1.218,0.731,1.884,0.723C147.755,295.218,148.033,294.247,147.826,293.439z"/>
			<path style="fill:#A9B2B8;" d="M116.27,311.936c-0.024-0.506-0.199-0.954-0.597-1.29c-0.493-0.417-1.227-0.35-1.786-0.136
				c-0.708,0.272-1.276,0.888-1.651,1.529c-0.298,0.509-0.522,1.04-0.621,1.621c-0.062,0.361-0.006,0.777,0.209,1.082
				c0.519,0.735,1.545,0.584,2.273,0.328c0.124-0.044,0.247-0.099,0.369-0.158c0.094-0.032,0.189-0.07,0.271-0.109
				c0.228-0.108,0.49-0.279,0.673-0.483c0.044-0.038,0.089-0.072,0.134-0.113c0.104-0.095,0.188-0.225,0.241-0.366
				c0.066-0.087,0.129-0.175,0.185-0.266C116.27,313.092,116.409,312.482,116.27,311.936z"/>
			<path style="fill:#A9B2B8;" d="M116.839,282.252c2.131-6.636,4.144-13.354,5.039-20.266c0.207-1.601,0.223-3.262,0.065-4.868
				c-0.153-1.552-0.445-3.227-1.743-4.231c-0.218-0.169-0.555,0.161-0.451,0.388c1.271,2.775,0.744,5.816,0.211,8.693
				c-0.735,3.969-1.578,7.9-2.644,11.794c-1.115,4.075-2.401,8.1-3.692,12.121c-0.647,2.017-1.308,4.037-1.839,6.088
				c-0.515,1.99-1.026,3.98-1.586,5.958c-1.139,4.021-2.833,8.089-2.485,12.352c0.057,0.698,0.74,0.638,1.216,0.366
				c1.593-0.915,2.335-2.787,3.511-4.12c1.372-1.556,3.147-3.083,3.571-5.21c0.385-1.932-0.51-3.873-0.714-5.777
				c-0.229-2.145-0.067-4.35,0.306-6.468C116.003,286.796,116.551,284.545,116.839,282.252z"/>
			<path style="fill:#A9B2B8;" d="M111.14,324.881c-0.495-0.277-0.946-0.617-1.359-1.006c-0.5-0.508-0.917-1.086-1.221-1.731
				c-0.059-0.139-0.116-0.278-0.195-0.408c-0.109-0.178-0.379-0.275-0.576-0.273c-0.226,0.003-0.433,0.068-0.629,0.178
				c-0.027,0.015-0.052,0.034-0.079,0.051c-0.109,0-0.219,0.021-0.296,0.057c-0.216,0.103-0.459,0.321-0.462,0.581
				c-0.004,0.368,0.029,0.747,0.096,1.108c0.091,0.493,0.239,0.954,0.429,1.418c0.205,0.502,0.425,1.043,0.775,1.463
				c0.32,0.384,0.725,0.757,1.231,0.858c0.996,0.199,1.873-0.412,2.396-1.219C111.445,325.658,111.519,325.093,111.14,324.881z"/>
			<path style="fill:#A9B2B8;" d="M130.13,312.782c-0.109-1.13-0.389-2.529-1.229-3.357c-0.279-0.276-0.616-0.459-1.022-0.423
				c-0.202,0.018-0.394,0.097-0.567,0.205c-0.034-0.009-0.067-0.02-0.102-0.027c-0.318-0.064-0.706,0.208-0.651,0.555
				c0.097,0.613,0.488,1.126,0.727,1.69c0.22,0.519,0.36,1.089,0.449,1.645c0.019,0.115,0.033,0.232,0.045,0.348
				c0.001,0.024,0.008,0.114,0.009,0.126c0.004,0.062,0.01,0.124,0.013,0.187c0.017,0.285,0.017,0.57,0.003,0.855
				c-0.03,0.616-0.123,1.23-0.227,1.837c-0.061,0.36,0.27,0.64,0.587,0.686c0.397,0.058,0.859-0.13,1.123-0.433
				C130.212,315.619,130.258,314.111,130.13,312.782z"/>
			<path style="fill:#A9B2B8;" d="M134.543,314.436c0.016-0.281-0.362-0.208-0.485-0.072c-0.4,0.441-0.57,1.025-0.852,1.534
				c-0.362,0.654-1.054,1.199-1.614,1.677c-1.509,1.291-2.955,2.651-4.487,3.915c-3.309,2.731-6.831,5.156-10.581,7.242
				c-0.801,0.446-1.609,0.883-2.403,1.341c-0.759,0.438-1.514,0.916-2.402,1.024c-0.288,0.035-0.501,0.509-0.115,0.559
				c1.573,0.206,3.265-0.573,4.601-1.313c1.869-1.035,3.719-2.102,5.505-3.276c1.919-1.261,3.762-2.639,5.547-4.084
				c1.697-1.374,3.273-2.872,4.92-4.301c0.756-0.656,1.621-1.333,2.104-2.23c0.19-0.353,0.314-0.735,0.341-1.134
				C134.643,315.016,134.526,314.727,134.543,314.436z"/>
			<path style="fill:#A9B2B8;" d="M162.882,270.379c-0.836-1.634-1.868-3.183-2.85-4.732c-0.545-0.86-1.035-1.737-1.497-2.643
				c-0.17-0.334-0.316-0.68-0.388-1.05c-0.055-0.28,0.049-0.701-0.09-0.941c-0.093-0.16-0.331-0.076-0.447-0.008
				c-0.739,0.432-0.582,1.782-0.46,2.466c0.186,1.036,0.748,2.049,1.315,2.924c1.08,1.664,2.508,3.039,3.944,4.388
				C162.617,270.978,162.999,270.609,162.882,270.379z"/>
			<path style="fill:#A9B2B8;" d="M182.616,282.105c-0.134-0.596-0.702-1.039-1.17-1.379c-0.398-0.288-0.847-0.505-1.285-0.725
				c-0.6-0.301-1.198-0.606-1.796-0.91c-0.709-0.361-1.442-0.686-2.117-1.111c-0.289-0.183-0.583-0.377-0.852-0.589
				c-0.119-0.093-0.226-0.194-0.35-0.28c-0.048-0.034-0.098-0.068-0.147-0.099c-0.048-0.053-0.108-0.088-0.18-0.103
				c-0.01-0.003-0.015-0.003-0.022-0.005c-0.322-0.292-0.999,0.077-1.008,0.52c0,0.013,0,0.019,0,0.027
				c-0.003-0.008-0.009-0.002-0.022,0.057c0.001-0.006-0.015,0.413-0.025,0.278c0.01,0.139,0.007,0.284,0.043,0.42
				c0.072,0.274,0.273,0.59,0.438,0.821c0.37,0.517,0.913,0.952,1.409,1.345c0.143,0.113,0.297,0.211,0.447,0.313
				c0.345,0.565,0.812,1.075,1.244,1.528c0.795,0.833,1.843,1.93,3.094,1.912c0.536-0.008,1.08-0.122,1.526-0.433
				C182.34,283.347,182.757,282.736,182.616,282.105z"/>
		</g>
		<g>
			<path style="fill:#434553;" d="M112.782,204.734c0,0,8.729-13.385,11.93-14.549c3.201-1.164,10.184,0.582,14.549,6.693
				c4.365,6.111,0.873,9.02,0.291,9.893c-0.582,0.873-8.438,11.057-8.438,11.057L112.782,204.734z"/>
			<path style="fill:#89929C;" d="M124.947,190.496c-0.595,0.396-1.047,1.006-1.505,1.546c-0.469,0.553-0.933,1.11-1.402,1.663
				c-0.92,1.084-1.88,2.133-2.769,3.243c-0.848,1.059-1.631,2.167-2.43,3.263c-0.803,1.1-1.74,2.219-2.344,3.443
				c-0.134,0.27,0.142,0.332,0.327,0.214c0,0.004,0.001,0.008,0.001,0.012c1.1-0.782,1.988-1.924,2.821-2.974
				c0.891-1.122,1.776-2.248,2.678-3.362c0.897-1.106,1.863-2.152,2.788-3.234c0.471-0.551,0.94-1.105,1.41-1.658
				c0.467-0.55,0.999-1.082,1.308-1.739C126.107,190.328,125.27,190.281,124.947,190.496z"/>
			<path style="fill:#89929C;" d="M127.927,190.343c-0.649,0.213-1.106,0.918-1.496,1.44c-0.442,0.592-0.884,1.182-1.341,1.762
				c-0.979,1.243-1.998,2.452-3.058,3.627c-1.035,1.148-2.094,2.274-3.095,3.452c-0.499,0.588-0.995,1.183-1.434,1.817
				c-0.399,0.576-0.658,1.213-1.013,1.801c-0.125,0.207,0.164,0.275,0.287,0.133c0.494-0.568,1.126-1.063,1.655-1.607
				c0.53-0.546,1.043-1.108,1.568-1.658c1.048-1.099,2.103-2.192,3.134-3.308c1.053-1.14,2.054-2.319,3.013-3.539
				c0.439-0.558,0.882-1.115,1.3-1.688c0.377-0.517,0.876-0.968,1.22-1.498C129.048,190.49,128.436,190.177,127.927,190.343z"/>
			<path style="fill:#89929C;" d="M130.799,190.881c-0.269-0.269-0.684-0.13-0.965,0.039c-0.561,0.337-0.917,0.918-1.26,1.458
				c-0.405,0.636-0.893,1.214-1.36,1.805c-1.034,1.307-2.054,2.62-3.116,3.906c-1.009,1.222-2.004,2.457-3.023,3.671
				c-0.452,0.539-0.914,1.085-1.301,1.673c-0.344,0.522-0.773,1.122-0.798,1.761c-0.005,0.115,0.143,0.122,0.213,0.064
				c0.535-0.448,0.955-1.021,1.436-1.529c0.48-0.508,0.966-1.011,1.452-1.514c1.087-1.124,2.087-2.329,3.113-3.509
				c1.049-1.207,2.014-2.476,3.012-3.725c0.486-0.609,0.997-1.206,1.45-1.841c0.34-0.478,0.591-0.988,1.043-1.376
				C130.936,191.554,131.039,191.121,130.799,190.881z"/>
			<path style="fill:#89929C;" d="M131.706,192.313c-0.614,1.165-1.454,2.168-2.294,3.174c-0.897,1.074-1.744,2.189-2.599,3.297
				c-0.862,1.117-1.723,2.236-2.558,3.373c-0.432,0.589-0.864,1.18-1.268,1.788c-0.19,0.285-0.386,0.566-0.561,0.861
				c-0.184,0.311-0.273,0.692-0.473,0.986c-0.069,0.103,0.081,0.131,0.144,0.067c0.254-0.264,0.595-0.443,0.865-0.693
				c0.29-0.269,0.557-0.56,0.828-0.848c0.512-0.545,1-1.116,1.48-1.69c0.935-1.117,1.837-2.261,2.743-3.401
				c0.868-1.092,1.737-2.181,2.633-3.25c0.867-1.035,1.739-2.084,2.374-3.282C133.537,191.717,132.109,191.549,131.706,192.313z"/>
			<path style="fill:#89929C;" d="M133.838,193.264c-0.957,0.984-1.747,2.205-2.587,3.291c-0.822,1.063-1.622,2.14-2.411,3.228
				c-0.759,1.047-1.496,2.109-2.267,3.147c-0.391,0.527-0.798,1.042-1.195,1.565c-0.372,0.489-0.813,0.964-1.062,1.529
				c-0.119,0.269,0.221,0.31,0.421,0.191c0,0.003,0,0.006-0.001,0.008c1.084-0.619,1.937-1.829,2.719-2.776
				c0.851-1.031,1.675-2.083,2.478-3.151c0.787-1.047,1.581-2.089,2.383-3.124c0.434-0.56,0.87-1.118,1.306-1.677
				c0.439-0.562,0.945-1.112,1.312-1.722C135.424,192.959,134.321,192.767,133.838,193.264z"/>
			<path style="fill:#89929C;" d="M135.809,194.954c-0.627,0.31-1.046,0.876-1.46,1.421c-0.417,0.549-0.808,1.118-1.209,1.678
				c-0.848,1.183-1.83,2.255-2.683,3.436c-0.861,1.193-1.72,2.387-2.594,3.571c-0.407,0.552-0.798,1.113-1.138,1.71
				c-0.31,0.545-0.587,1.124-1.004,1.599c-0.183,0.188-0.013,0.421,0.223,0.319c1.156-0.498,1.824-1.832,2.598-2.768
				c0.969-1.172,1.906-2.35,2.805-3.578c0.869-1.187,1.855-2.278,2.724-3.463c0.407-0.556,0.793-1.127,1.196-1.685
				c0.401-0.556,0.991-1.111,1.211-1.768C136.624,194.992,136.158,194.782,135.809,194.954z"/>
			<path style="fill:#89929C;" d="M137.417,196.764c-0.677,0.154-1.083,0.796-1.436,1.349c-0.344,0.541-0.682,1.068-1.065,1.582
				c-0.981,1.316-1.986,2.616-2.952,3.944c-0.93,1.278-1.821,2.584-2.748,3.864c-0.418,0.578-0.802,1.17-1.19,1.768
				c-0.298,0.46-0.587,0.962-0.607,1.522c-0.006,0.154,0.213,0.095,0.261,0.005c0.296-0.562,0.803-0.985,1.218-1.457
				c0.477-0.543,0.931-1.106,1.393-1.661c0.971-1.169,1.843-2.415,2.772-3.617c0.943-1.22,1.87-2.453,2.795-3.687
				c0.384-0.512,0.767-1.017,1.103-1.563c0.157-0.255,0.308-0.521,0.493-0.757c0.194-0.248,0.416-0.429,0.516-0.739
				C138.09,196.941,137.781,196.681,137.417,196.764z"/>
			<path style="fill:#89929C;" d="M137.928,199.094c-1.016,0.962-1.753,2.277-2.529,3.431c-0.826,1.23-1.694,2.431-2.51,3.667
				c-0.78,1.181-1.558,2.36-2.346,3.535c-0.316,0.471-0.672,0.915-0.986,1.385c-0.17,0.254-0.491,0.745-0.303,1.049
				c0.04,0.065,0.142,0.037,0.191,0.003c0.372-0.253,0.696-0.652,1.018-0.969c0.439-0.431,0.842-0.893,1.251-1.354
				c0.937-1.055,1.742-2.21,2.574-3.347c0.818-1.118,1.62-2.249,2.4-3.394c0.774-1.138,1.694-2.279,2.302-3.515
				C139.392,198.766,138.427,198.621,137.928,199.094z"/>
			<path style="fill:#89929C;" d="M138.857,201.143c-0.632,1.033-1.439,1.966-2.135,2.961c-0.754,1.077-1.532,2.137-2.28,3.218
				c-0.723,1.045-1.429,2.104-2.13,3.163c-0.353,0.533-0.712,1.063-1.072,1.591c-0.159,0.233-0.318,0.467-0.481,0.698
				c-0.191,0.271-0.331,0.59-0.529,0.85c-0.165,0.217,0.172,0.252,0.301,0.14c0.258-0.225,0.545-0.385,0.798-0.623
				c0.241-0.226,0.475-0.458,0.704-0.696c0.48-0.499,0.926-1.024,1.361-1.562c0.848-1.048,1.623-2.16,2.394-3.265
				c0.774-1.11,1.579-2.199,2.355-3.307c0.379-0.541,0.746-1.09,1.152-1.611c0.362-0.464,0.719-0.932,0.786-1.534
				C140.167,200.412,139.082,200.777,138.857,201.143z"/>
			<path style="fill:#89929C;" d="M139.651,203.73c-0.543,1.026-1.129,1.947-1.867,2.848c-0.738,0.901-1.46,1.808-2.167,2.733
				c-0.746,0.975-1.503,1.942-2.238,2.924c-0.36,0.481-0.715,0.966-1.086,1.439c-0.292,0.373-0.701,0.777-0.847,1.234
				c-0.03,0.093,0.067,0.134,0.142,0.099c0.458-0.215,0.831-0.653,1.175-1.014c0.424-0.446,0.842-0.899,1.25-1.359
				c0.85-0.957,1.629-1.98,2.41-2.993c0.731-0.949,1.488-1.871,2.243-2.8c0.719-0.884,1.549-1.87,1.885-2.979
				C140.731,203.259,139.859,203.337,139.651,203.73z"/>
			<path style="opacity:0.51;fill:#434553;" d="M139.261,196.878c-4.365-6.111-11.348-7.856-14.549-6.693
				c-3.201,1.164-11.93,14.549-11.93,14.549l18.332,13.094c0,0,7.856-10.184,8.438-11.057
				C140.134,205.898,143.626,202.988,139.261,196.878z M133.492,202.752c-0.601,0.677-1.364,1.274-2.179,1.669
				c-1.166,0.566-2.382,0.568-3.572,0.077c-1.163-0.48-2.157-1.3-3.37-1.657c-1.124-0.33-2.295-0.449-3.429-0.734
				c-0.704-0.177-1.445-0.424-1.782-1.123c-0.279-0.579-0.216-1.253-0.049-1.855c0.454-1.645,1.573-3.12,2.652-4.407
				c0.557-0.666,1.149-1.304,1.78-1.902c0.444-0.421,0.909-0.843,1.43-1.167c0.146-0.091,0.281,0.006,0.322,0.133
				c0.474-0.234,0.981-0.404,1.516-0.484c1.342-0.2,2.697,0.129,3.876,0.779c2.401,1.323,4.266,3.998,4.287,6.789
				C134.984,200.309,134.445,201.678,133.492,202.752z"/>
		</g>
		<g>
			<path style="fill:#826759;" d="M128.495,207.062c0,0-4.365-5.82-13.094-4.656c0,0-3.492-0.291-5.82,2.037
				c-2.328,2.328-96.896,138.797-103.589,149.564c0,0-2.328,1.455,3.201,10.766c5.529,9.311,20.078,11.348,25.897,8.729
				c0,0,2.619-1.746,4.074-5.529c1.455-3.783,93.986-148.4,93.986-148.4S134.896,210.554,128.495,207.062z"/>
			<path style="fill:#826759;" d="M128.495,207.062c0,0-4.365-5.82-13.094-4.656c0,0-3.492-0.291-5.82,2.037
				c-2.328,2.328-96.896,138.797-103.589,149.564c0,0-2.328,1.455,3.201,10.766c5.529,9.311,20.078,11.348,25.897,8.729
				c0,0,2.619-1.746,4.074-5.529c1.455-3.783,93.986-148.4,93.986-148.4S134.896,210.554,128.495,207.062z"/>
			<path style="fill:#434553;" d="M128.495,207.062c0,0-4.365-5.82-13.094-4.656c0,0-3.492-0.291-5.82,2.037
				c-0.376,0.376-3.158,4.252-7.585,10.527c1.792-0.238,3.625-0.236,5.41-0.077c2.661,0.237,5.333,0.827,7.766,1.953
				c2.312,1.07,4.253,2.744,5.724,4.818c1.601,2.258,2.657,4.873,3.44,7.514c0.292,0.983,0.545,1.976,0.771,2.975
				c4.995-7.816,8.043-12.579,8.043-12.579S134.896,210.554,128.495,207.062z"/>
			<path style="fill:#5E6275;" d="M41.232,357.525c-1.066-3.011-2.548-5.871-4.556-8.365c-2.123-2.637-4.724-4.874-7.742-6.425
				c-2.914-1.498-6.156-2.35-9.431-2.463c-1.517-0.052-3.035,0.063-4.526,0.326c-4.703,6.906-7.933,11.714-8.986,13.408
				c0,0-2.328,1.455,3.201,10.766c5.529,9.311,20.078,11.348,25.897,8.729c0,0,2.619-1.746,4.074-5.529
				c0.157-0.409,1.382-2.469,3.439-5.813C42.213,360.596,41.771,359.045,41.232,357.525z"/>
			<path style="fill:#A9B2B8;" d="M35.132,369.581c-0.31-1.09-0.731-2.147-1.215-3.172c-0.946-2.004-2.271-3.783-3.846-5.335
				c-3.662-3.609-8.243-6.073-13.213-7.33c-1.491-0.377-3.016-0.716-4.558-0.785c-0.809-0.036-1.589,0.081-2.377,0.251
				c-0.792,0.171-1.563,0.441-2.37,0.526c-0.258,0.027-0.639,0.595-0.228,0.666c0.567,0.099,1.163,0.185,1.738,0.137
				c0.654-0.054,1.302-0.153,1.959-0.173c1.329-0.041,2.65,0.317,3.929,0.636c2.558,0.639,5.001,1.436,7.328,2.697
				c3.914,2.122,7.351,5.095,9.793,8.835c0.649,0.993,1.191,2.04,1.606,3.152c0.444,1.192,0.617,2.453,1.035,3.646
				c0.174,0.496,0.903,0.086,0.935-0.303C35.742,371.878,35.446,370.683,35.132,369.581z"/>
			<path style="fill:#A9B2B8;" d="M40.139,352.336c-0.866-1.856-2.048-3.486-3.501-4.926c-1.752-1.736-3.764-3.176-5.963-4.292
				c-2.205-1.12-4.495-1.849-6.902-2.384c-1.303-0.29-2.616-0.591-3.948-0.699c-1.257-0.102-2.787-0.158-3.893,0.537
				c-0.269,0.169-0.306,0.577,0.059,0.622c0.473,0.058,0.95-0.014,1.429-0.003c0.595,0.013,1.192,0.056,1.781,0.142
				c1.141,0.166,2.268,0.413,3.389,0.681c2.252,0.539,4.458,1.164,6.545,2.186c3.904,1.912,7.212,4.841,9.492,8.55
				c0.562,0.915,1.082,1.85,1.546,2.819c0.504,1.051,0.892,2.15,1.496,3.151c0.125,0.208,0.433-0.063,0.415-0.234
				C41.872,356.385,41.027,354.239,40.139,352.336z"/>
			<path style="fill:#4D5663;" d="M125.398,228.959c-0.288-0.802-0.841-1.539-1.264-2.278c-0.441-0.771-0.882-1.542-1.327-2.311
				c-0.892-1.539-1.851-3.07-3.029-4.408c-2.633-2.989-6.474-4.663-10.304-5.501c-1.167-0.255-2.264-0.359-3.454-0.212
				c-1.077,0.132-2.226,0.281-3.25,0.648c-0.149,0.053-0.355,0.336-0.157,0.459c0.684,0.422,1.635,0.258,2.397,0.187
				c1.001-0.093,2.009-0.158,2.997,0.061c1.932,0.428,3.843,1.004,5.646,1.826c1.745,0.795,3.342,1.758,4.777,3.035
				c1.272,1.131,2.33,2.466,3.269,3.88c0.52,0.783,1.005,1.587,1.485,2.395c0.495,0.834,0.944,1.86,1.624,2.555
				C125.003,229.495,125.504,229.255,125.398,228.959z"/>
			<path style="fill:#5E6275;" d="M41.232,357.525c-0.996-2.813-2.362-5.492-4.174-7.866c-0.197-0.137-0.4-0.265-0.615-0.371
				c-0.514-0.254-1.102-0.379-1.671-0.265c-0.527,0.105-0.909,0.357-1.249,0.765c-0.101,0.122-0.197,0.248-0.288,0.377
				c-0.204,0.716-0.555,1.395-0.981,2c-0.986,1.401-2.458,2.684-4.159,3.09c-0.375,0.09-0.766,0.135-1.151,0.108
				c-0.531-0.037-1.038-0.236-1.526-0.438c-1.112-0.462-2.142-1.087-3.219-1.621c-1.101-0.545-2.288-0.922-3.473-1.237
				c-1.263-0.336-2.555-0.569-3.854-0.713c-1.08-0.12-2.143-0.155-3.224-0.024c-1.055,0.127-2.098,0.384-3.095,0.75
				c-0.646,0.237-1.281,0.53-1.886,0.875c-0.276,0.424-0.505,0.783-0.673,1.053c0,0-2.328,1.455,3.201,10.766
				c5.529,9.311,20.078,11.348,25.897,8.729c0,0,2.619-1.746,4.074-5.529c0.157-0.409,1.382-2.469,3.439-5.813
				C42.213,360.596,41.771,359.045,41.232,357.525z"/>
		</g>
		<path style="fill:#A07F6F;" d="M109.443,220.572c-0.109-0.773-0.441-1.551-1.11-1.993c-0.855-0.565-2.023-0.448-2.941-0.123
			c-1.617,0.573-2.819,2.06-3.796,3.404c-0.082,0.112-0.154,0.231-0.233,0.344c-0.119,0.011-0.239,0.064-0.321,0.164
			c-7.826,9.585-14.716,19.939-21.604,30.214c-6.945,10.36-14.105,20.572-21.142,30.869c-7.058,10.327-14.015,20.728-20.638,31.345
			c-3.102,4.973-6.95,9.425-9.825,14.556c-0.724,1.292-1.417,2.632-1.898,4.037c-0.338,0.987-0.659,2.17-0.367,3.21
			c0.357,1.272,1.682,1.837,2.909,1.852c1.843,0.022,3.622-0.871,5.184-1.765c1.549-0.886,3.004-1.919,4.438-2.981
			c1.68-1.244,3.419-2.402,5.101-3.645c4.562-3.37,8.924-7.096,12.543-11.492c7.128-8.659,10.652-19.441,15.733-29.296
			c5.553-10.771,12.366-20.814,18.72-31.109c3.299-5.345,6.513-10.742,9.794-16.098c1.586-2.588,3.226-5.142,4.81-7.732
			c1.472-2.406,2.856-4.912,3.742-7.603C109.171,224.825,109.729,222.599,109.443,220.572z"/>
		<path style="opacity:0.54;fill:#A07F6F;" d="M114.237,227.116c-0.408-2.856-2.285-5.517-5.299-5.821
			c-1.979-0.2-3.997,0.621-5.602,1.855c-0.138-0.042-0.311-0.033-0.467,0.06c-1.47,0.869-2.905,2.003-4.103,3.233
			c-0.605,0.621-1.182,1.297-1.604,2.059c-0.484,0.876-0.744,1.793-0.966,2.762c-0.216,0.945-0.45,1.855-0.92,2.71
			c-0.485,0.881-1.003,1.743-1.538,2.595c-1.066,1.695-2.202,3.344-3.309,5.012c-1.116,1.682-2.104,3.423-3.132,5.158
			c-1.022,1.725-2.152,3.367-3.346,4.977c-2.397,3.232-5.115,6.205-7.553,9.404c-2.477,3.249-4.786,6.616-7.135,9.957
			c-2.218,3.155-4.566,6.214-6.741,9.401c-2.193,3.214-4.278,6.515-6,10.009c-0.76,1.542-1.64,3.178-2.03,4.864
			c-0.22,0.952-0.324,2.189,0.619,2.804c0.809,0.527,1.922,0.352,2.791,0.089c1.168-0.352,2.248-0.888,3.306-1.49
			c2.618-1.489,4.846-3.48,6.733-5.822c2.114-2.624,3.845-5.52,5.87-8.209c2.02-2.681,4.484-4.908,7.168-6.904
			c5.486-4.079,11.574-7.423,16.308-12.439c2.548-2.7,4.472-5.819,5.973-9.204c1.485-3.348,2.555-6.86,3.883-10.269
			c0.33-0.847,0.672-1.69,1.038-2.522c0.085-0.194,0.172-0.386,0.26-0.579c0.03-0.065,0.059-0.13,0.09-0.194
			c0.016-0.034,0.046-0.094,0.052-0.107c0.176-0.342,0.358-0.68,0.553-1.013c0.745-1.273,1.605-2.474,2.41-3.709
			C113.236,233.19,114.691,230.299,114.237,227.116z"/>
		<g>
			<path style="fill:#FFFFFF;" d="M29.141,335.453c0.004,0.002,0.008,0.003,0.014,0.006c-0.005-0.003-0.011-0.008-0.016-0.011
				C29.14,335.45,29.14,335.452,29.141,335.453z"/>
			<path style="opacity:0.54;fill:#A07F6F;" d="M49.618,304.435c-0.287-0.713-1.162-0.678-1.711-0.261
				c-2.225,1.689-3.888,3.999-5.278,6.397c-1.276,2.201-2.379,4.524-3.366,6.876c-0.958,1.176-1.872,2.382-2.708,3.651
				c-0.953,1.447-1.874,2.923-2.943,4.289c-2.24,2.863-5.116,5.301-6.624,8.685c-0.615,1.38-0.703,3.204,1.073,3.678
				c2.389,0.638,4.733-1.001,6.548-2.346c1.063-0.787,2.082-1.631,3.12-2.45c0.947-0.747,1.94-1.374,2.943-2.039
				c2.669-1.767,5.229-4.073,6.293-7.179c1.058-3.091,0.891-6.433,1.351-9.63c0.368-2.556,1.648-5.177,1.603-7.88
				C49.911,305.617,49.846,305.003,49.618,304.435z"/>
		</g>
		<g>
			<path style="fill:#FFFFFF;" d="M43.991,345.375c0.002,0.003,0.008,0.009,0.016,0.014C43.985,345.35,43.929,345.27,43.991,345.375
				z"/>
			<path style="opacity:0.54;fill:#A07F6F;" d="M84.475,279.678c-2.035,0.261-3.919,1.42-5.503,2.663
				c-1.694,1.329-3.214,2.86-4.674,4.436c-3.265,3.525-6.631,6.957-9.869,10.507c-1.589,1.741-3.144,3.518-4.546,5.412
				c-0.518,0.475-1.025,0.959-1.506,1.466c-1.503,1.584-2.906,3.337-3.994,5.234c-1.2,2.093-1.767,4.305-2.105,6.68
				c-0.181,1.268-0.311,2.549-0.575,3.804c-0.269,1.282-0.721,2.526-1.136,3.766c-0.847,2.532-1.715,5.126-2.911,7.519
				c-1.958,3.918-5.184,7.157-5.946,11.605c-0.199,1.162-0.378,2.756,0.352,3.783c1,1.406,2.923,0.417,3.97-0.372
				c3.626-2.732,6.005-6.864,8.083-10.808c1.065-2.02,2.082-4.066,3.171-6.074c1.179-2.174,2.471-4.28,3.628-6.469
				c1.254-2.374,2.469-4.767,3.888-7.049c1.424-2.291,3.06-4.453,4.66-6.622c1.647-2.231,3.301-4.458,4.863-6.751
				c1.38-2.027,2.626-4.134,3.934-6.206c2.509-3.972,5.219-7.989,6.715-12.48c0.343-1.029,0.599-2.089,0.751-3.163
				C85.83,279.822,85.031,279.607,84.475,279.678z"/>
		</g>
		<path style="opacity:0.54;fill:#A07F6F;" d="M107.561,219.111c-0.036-0.626-0.184-1.219-0.554-1.738
			c-0.327-0.458-0.948-0.383-1.403-0.215c-2.058,0.761-3.459,2.861-4.424,4.725c-0.281,0.542-0.543,1.097-0.786,1.66
			c-0.063,0.109-0.127,0.218-0.189,0.327c-1.114,1.94-2.229,3.858-3.487,5.711c-2.648,3.898-5.566,7.596-8.154,11.538
			c-2.648,4.034-5.13,8.172-7.666,12.277c-2.579,4.174-5.26,8.272-8.055,12.303c-5.088,7.337-10.396,14.517-15.593,21.776
			c-5.01,6.648-9.581,13.633-13.915,20.732c-0.353,0.579-0.7,1.161-1.049,1.742c-0.987,1.361-1.996,2.707-2.991,4.061
			c-2.942,4.005-5.737,8.096-8.459,12.254c-1.108,1.692-2.204,3.392-3.379,5.038c-0.95,1.33-1.937,2.708-2.521,4.247
			c-0.236,0.621-0.377,1.282-0.258,1.944c0.13,0.724,1.077,0.448,1.467,0.224c1.86-1.069,3.054-2.969,4.164-4.741
			c1.384-2.21,2.834-4.379,4.241-6.574c2.455-3.829,4.758-7.754,7.118-11.643c2.258-2.587,4.158-5.492,6.093-8.331
			c1.399-2.053,2.87-4.004,4.439-5.931c1.647-2.023,3.023-4.153,4.239-6.461c0.316-0.599,0.621-1.204,0.925-1.809
			c2.57-4.06,5.355-7.974,8.21-11.839c1.598-1.895,3.205-3.784,4.761-5.714c3.272-4.057,6.422-8.211,9.471-12.438
			c3.043-4.219,5.92-8.548,8.88-12.825c2.974-4.299,6.138-8.463,9.138-12.744c2.106-3.003,4.122-6.08,6.147-9.139
			c0.93-1.406,1.8-2.848,2.521-4.373C107.076,221.919,107.641,220.502,107.561,219.111z"/>
		<path style="opacity:0.54;fill:#A07F6F;" d="M112.409,221.449c-0.511-0.805-1.66-0.201-2.154,0.227
			c-1.044,0.905-1.49,2.31-2.054,3.464c-0.583,1.191-1.174,2.379-1.777,3.56c-0.966,1.217-1.9,2.46-2.798,3.727
			c-2.003,2.825-3.787,5.795-5.656,8.709c-1.963,3.062-4.024,6.055-5.927,9.156c-1.893,3.086-3.649,6.254-5.784,9.183
			c-2.206,3.027-4.593,6.008-5.945,9.543c-0.181,0.474,0.159,0.787,0.595,0.85c1.345,0.192,2.703-0.709,3.696-1.51
			c1.275-1.029,2.394-2.23,3.475-3.458c2.616-2.972,5.466-5.725,8.038-8.738c1.535-1.799,2.978-3.672,4.235-5.677
			c1.206-1.923,2.245-3.931,3.228-5.975c2.102-4.37,4.142-8.774,5.977-13.264c0.406-0.994,0.769-2.01,1.217-2.986
			c0.332-0.721,0.676-1.436,0.988-2.166C112.317,224.801,113.264,222.797,112.409,221.449z"/>
		<path style="opacity:0.54;fill:#A07F6F;" d="M120.278,230.642c-0.207-0.853-1.283-0.589-1.795-0.274
			c-0.921,0.566-1.661,1.36-2.33,2.211c-0.633,0.496-1.226,1.045-1.784,1.62c-1.662,1.71-3.174,3.731-4.023,5.977
			c-0.373,0.987-0.638,2.147-0.321,3.185c0.19,0.621,0.937,0.681,1.452,0.445c1.847-0.847,3.369-2.493,4.655-4.021
			c1.527-1.814,2.974-3.837,3.796-6.08C120.28,232.744,120.525,231.658,120.278,230.642z"/>
		<path style="opacity:0.54;fill:#A07F6F;" d="M73.578,276.474c-0.518,0.205-0.985,0.497-1.415,0.84
			c-2.473,1.099-3.487,3.83-4.789,6.002c-0.013,0.021-0.021,0.043-0.032,0.065c-0.74,0.884-1.504,1.747-2.194,2.673
			c-0.61,0.818-1.195,1.733-1.516,2.72c-0.127,0.19-0.257,0.379-0.378,0.572c-0.87,1.385-1.628,2.872-1.874,4.504
			c-0.053,0.35,0.211,0.658,0.529,0.754c0.41,0.124,0.8-0.048,1.146-0.251c2.993-1.754,5.017-4.954,6.875-7.786
			c1.922-2.93,4.379-5.906,5.002-9.441C75.071,276.332,74.052,276.286,73.578,276.474z"/>
		<path style="opacity:0.54;fill:#A07F6F;" d="M50.978,304.424c-2.719,3.161-5.08,6.626-7.101,10.271
			c-0.515,0.93-0.995,1.871-1.449,2.825c-0.232,0.34-0.464,0.679-0.692,1.021c-0.823,1.24-1.648,2.444-2.555,3.624
			c-0.962,1.251-1.931,2.51-2.723,3.878c-0.732,1.264-1.527,2.878-1.138,4.379c0.117,0.452,0.65,0.62,1.064,0.514
			c1.753-0.449,3.014-1.868,4.078-3.247c1.05-1.361,1.924-2.839,2.881-4.264c1.246-1.856,2.639-3.601,3.844-5.49
			c1.261-1.976,2.435-4,3.432-6.123c1.056-2.248,1.964-4.627,2.296-7.101C53.068,303.586,51.428,303.9,50.978,304.424z"/>
		<path style="opacity:0.54;fill:#A07F6F;" d="M92.296,272.777c-0.405-0.188-0.896-0.047-1.249,0.196
			c-1.138,0.786-2.303,1.829-2.768,3.173c-0.03,0.038-0.062,0.072-0.091,0.11c-0.251,0.328-0.485,0.701-0.601,1.099
			c-0.103,0.35-0.002,0.865,0.437,0.937c0.352,0.058,0.685,0.062,1.03-0.041c0.375-0.112,0.712-0.264,1.036-0.49
			c0.513-0.357,0.928-0.836,1.274-1.352c0.552-0.822,0.925-1.759,1.29-2.676C92.798,273.367,92.654,272.943,92.296,272.777z"/>
		<path style="fill:#5E6275;" d="M19.99,357.977c-0.663-0.583-1.553-0.904-2.386-1.155c-0.873-0.264-1.77-0.517-2.671-0.658
			c-0.201-0.032-0.395-0.008-0.571,0.064c-0.428-0.144-0.866-0.258-1.312-0.312c-1.489-0.181-3.056,0.431-3.559,1.944
			c-0.393,1.183-0.072,2.546,0.372,3.669c0.591,1.494,1.509,2.875,2.51,4.124c1.112,1.388,2.445,2.778,4.071,3.554
			c1.175,0.561,2.782,0.823,3.564-0.507c0.564-0.959,0.254-2.242,0.041-3.258c-0.124-0.588-0.268-1.172-0.376-1.764
			c-0.033-0.179-0.085-0.502-0.093-0.604c-0.008-0.101-0.012-0.204-0.01-0.305c0.001-0.044,0.024-0.222,0.02-0.244
			c0.208-0.793,0.978-1.327,1.238-2.109C21.136,359.482,20.694,358.595,19.99,357.977z"/>
		<path style="fill:#5E6275;" d="M24.66,346.616c-0.11-1.257-0.945-2.079-2.028-2.617c-0.92-0.457-1.877-0.872-2.851-1.201
			c-0.618-0.209-1.26-0.38-1.91-0.472c-0.551,0.301-1.055,0.688-1.482,1.158c-0.642,0.707-1.255,1.416-1.798,2.204
			c-0.627,0.91-1.195,1.875-1.623,2.896c-0.099,0.235-0.192,0.477-0.275,0.724c0.225,0.248,0.535,0.424,0.87,0.506
			c1.127,0.277,2.243-0.258,3.359-0.102c0.442,0.062,0.95,0.367,1.371,0.588c0.572,0.3,1.158,0.62,1.785,0.79
			c1.299,0.352,2.548-0.116,3.397-1.14C24.224,349.05,24.764,347.805,24.66,346.616z"/>
		<path style="opacity:0.57;fill:#A9B2B8;" d="M126.595,208.031c-1.489-1.697-3.379-2.907-5.486-3.696
			c-1.888-0.707-3.959-1.27-5.992-1.099c-1.592,0.134-3.048,0.743-4.158,1.805c-0.187,0.124-0.371,0.251-0.542,0.404
			c-0.473,0.424-0.889,0.921-1.3,1.403c-0.763,0.893-1.485,1.819-2.24,2.718c-0.661,0.787-2.532,2.957-0.619,3.512
			c0.933,0.271,2.026-0.04,2.978-0.062c1.007-0.024,2.036,0.007,3.025,0.205c1.984,0.397,3.82,1.516,5.395,2.749
			c0.757,0.592,1.556,1.23,2.497,1.497c0.943,0.268,1.87,0.037,2.696-0.448c1.583-0.928,2.618-2.574,3.694-4.007
			c0.564-0.751,1.206-1.491,1.252-2.478C127.839,209.555,127.206,208.727,126.595,208.031z"/>
		<path style="opacity:0.57;fill:#A9B2B8;" d="M121.053,205.762c-0.937-0.387-1.964-0.611-2.929-0.924
			c-1.113-0.361-2.265-0.641-3.438-0.451c-1.362,0.221-2.614,1.08-3.528,2.078c-0.084,0.092-0.144,0.184-0.183,0.273
			c-0.478,0.516-0.899,1.085-1.224,1.664c-0.412,0.735-0.81,1.931,0.337,2.194c1.088,0.249,2.288-0.41,3.365-0.488
			c1.416-0.103,2.617,0.347,3.931,0.781c1.254,0.414,2.473,0.588,3.656-0.112c0.97-0.574,1.845-1.64,1.841-2.818
			C122.878,206.822,122.016,206.159,121.053,205.762z"/>
		<path style="opacity:0.57;fill:#A9B2B8;" d="M125.026,210.132c0.011-0.141-0.023-0.27-0.101-0.388
			c-0.059-0.09-0.138-0.151-0.237-0.184c-0.095-0.055-0.198-0.08-0.311-0.075c-0.167,0-0.327,0.034-0.479,0.102
			c-0.18,0.068-0.353,0.165-0.515,0.267c-0.136,0.086-0.265,0.193-0.367,0.317c-0.065,0.079-0.154,0.182-0.21,0.281
			c-0.056,0.1-0.104,0.204-0.149,0.31c-0.034,0.08-0.062,0.163-0.092,0.245c-0.053,0.145-0.062,0.293-0.028,0.443
			c0.038,0.143,0.118,0.258,0.24,0.342c0.018,0.015,0.036,0.028,0.056,0.039c0.063,0.036,0.144,0.07,0.211,0.097
			c0.001,0.001,0.002,0.003,0.004,0.003c0.107,0.069,0.225,0.103,0.353,0.103c0.086,0,0.169-0.013,0.25-0.034
			c0.068-0.005,0.134-0.019,0.197-0.048c0.058-0.019,0.096-0.027,0.143-0.049c0.034-0.015,0.069-0.03,0.105-0.043
			c0.115-0.047,0.216-0.113,0.304-0.199c0.094-0.07,0.171-0.155,0.231-0.257c0.004-0.005,0.01-0.009,0.014-0.015
			c0.15-0.185,0.204-0.26,0.298-0.481C125.045,210.663,125.027,210.394,125.026,210.132z"/>
		<path style="opacity:0.51;fill:#434553;" d="M131.673,212.503c-0.399-1.223-1.165-2.094-2.272-2.726
			c-0.386-0.221-1.156,0.282-0.852,0.731c0.384,0.567,0.686,1.161,0.9,1.778c-0.182,0.219-0.289,0.492-0.233,0.791
			c0.098,0.527-0.211,1.244-0.548,1.831c-0.43,0.749-0.952,1.453-1.461,2.077c-0.516,0.634-1.014,1.316-1.691,1.789
			c-0.757,0.53-1.637,0.561-2.529,0.423c-0.57-0.088-1.301,0.287-1.332,0.934c-0.029,0.59,0.214,1.207,0.446,1.736
			c0.335,0.763,0.755,1.504,1.242,2.181c0.369,0.513,0.828,1.117,1.449,1.332c0.765,0.265,1.521-0.233,2.067-0.721
			c1.172-1.049,1.945-2.523,2.755-3.849c0.978-1.602,1.874-3.207,2.214-5.078C132.023,214.661,132.014,213.546,131.673,212.503z"/>
		<g>
			<path style="fill:#5E6275;" d="M19.097,343.296c-0.045-0.274-0.376-0.372-0.607-0.349c-0.326,0.033-0.594,0.227-0.78,0.489
				c-0.009,0.013-0.015,0.026-0.024,0.038c-0.25,0.217-0.478,0.462-0.683,0.722c-0.375,0.475-0.734,0.962-1.031,1.49
				c-0.537,0.957-1.014,1.969-1.249,3.047c-0.08,0.369,0.072,0.645,0.474,0.676c0.495,0.039,0.953-0.314,1.287-0.636
				c0.355-0.342,0.648-0.759,0.919-1.169c0.599-0.909,1.126-1.909,1.482-2.939C19.034,344.231,19.173,343.759,19.097,343.296z"/>
			<polygon style="fill:#CD4D9C;" points="15.423,348.145 15.418,348.148 15.416,348.15 15.423,348.146 			"/>
		</g>
		<path style="fill:#5E6275;" d="M13.214,358.83c-0.027-0.141-0.063-0.282-0.117-0.415c-0.107-0.265-0.243-0.44-0.457-0.634
			c-0.253-0.229-0.612-0.323-0.946-0.247c-0.486,0.11-0.859,0.454-1.052,0.905c-0.045,0.105-0.069,0.214-0.085,0.324
			c-0.038,0.133-0.065,0.269-0.078,0.41c-0.03,0.318,0.022,0.66,0.106,0.967c0.078,0.284,0.195,0.59,0.387,0.817
			c0.278,0.329,0.65,0.474,1.08,0.385c0.576-0.12,1.02-0.608,1.148-1.171C13.302,359.727,13.3,359.278,13.214,358.83z"/>
		<path style="fill:#5E6275;" d="M40.908,360.313c-0.229-2.089-0.974-4.099-1.929-5.959c-0.769-1.498-1.646-3.167-3.34-3.741
			c-0.34-0.115-0.85,0.38-0.523,0.672c1.134,1.014,1.826,2.514,2.405,3.891c0.542,1.289,1.062,2.592,1.423,3.942
			c-0.039,0.033-0.075,0.067-0.106,0.103c-0.566,0.656-1.018,1.402-1.601,2.042c-0.458,0.503-1.047,1.007-1.77,0.711
			c-0.8-0.328-1.263-1.231-1.823-1.837c-0.846-0.915-1.929-1.539-3.013-2.129c-0.511-0.278-1.465,0.548-0.883,0.927
			c0.677,0.539,1.332,1.111,1.934,1.733c0.809,0.939,1.481,2.012,2.041,3.08c0.551,1.05,1.021,2.144,1.506,3.226
			c0.355,0.793,0.693,1.778,1.284,2.425c0.079,0.087,0.218,0.108,0.323,0.05c1.401-0.779,1.962-2.461,2.695-3.792
			c0.443-0.803,0.928-1.606,1.189-2.492C40.997,362.219,41.014,361.285,40.908,360.313z"/>
		<path style="opacity:0.54;fill:#C6A97A;" d="M121.346,228.415c-0.604-1.458-1.391-2.718-2.317-3.899
			c-0.819-3.888-4.408-6.066-7.988-7.142c-1.795-0.54-3.849-1.022-5.735-0.925c-0.974,0.05-1.89,0.34-2.616,1.01
			c-0.587,0.542-0.948,1.254-1.303,1.957c-1.159,2.285-2.875,4.286-4.537,6.22c-1.897,2.208-3.764,4.42-5.51,6.75
			c-3.64,4.858-7.283,9.716-10.841,14.635c-3.565,4.93-7.037,9.928-10.342,15.037c-3.309,5.114-6.347,10.391-9.485,15.61
			c-3.232,5.377-6.467,10.766-9.946,15.988c-3.383,5.078-6.976,10.017-10.53,14.976c-1.783,2.488-3.643,4.918-5.454,7.385
			c-1.747,2.381-3.507,4.715-5.385,6.995c-1.666,2.021-3.105,4.132-4.506,6.339c-1.246,1.963-2.525,3.961-3.354,6.145
			c-0.36,0.95-0.626,1.956-0.639,2.976c-0.003,0.21,0.103,0.388,0.314,0.448c1.04,0.293,2.089,0.195,3.153,0.216
			c1.063,0.021,2.063,0.34,3.062,0.679c1.994,0.676,3.899,1.591,5.702,2.677c1.82,1.097,3.495,2.414,5.137,3.756
			c1.344,1.098,2.616,2.725,4.382,3.11c0.373,0.081,0.799-0.114,0.992-0.446c1.109-1.914,0.207-3.795-0.38-5.712
			c-0.316-1.031-0.42-2.067-0.058-3.102c0.326-0.932,0.929-1.751,1.504-2.543c2.904-4.003,5.663-8.109,8.32-12.28
			c5.415-8.499,10.353-17.275,15.454-25.962c5.208-8.868,10.746-17.538,16.174-26.272c2.691-4.331,5.364-8.674,7.943-13.072
			c2.419-4.125,4.729-8.313,7.187-12.416c2.389-3.988,4.908-7.926,7.81-11.564c1.315-1.648,2.678-3.471,4.371-4.751
			c1.439-1.089,3.13-1.713,4.937-1.779c1.001-0.037,1.991,0.05,2.973,0.245C120.433,229.823,121.671,229.198,121.346,228.415z"/>
		<path style="opacity:0.57;fill:#A9B2B8;" d="M129.432,191.054c-1.033-0.332-2.113-0.564-3.186-0.266
			c-1.184,0.329-2.189,1.102-2.95,2.052c-0.695,0.87-1.363,1.907-1.768,2.986c-0.001,0.001-0.002,0.002-0.003,0.003
			c-0.685,0.718-1.346,1.464-1.947,2.254c-0.262,0.345-0.489,0.717-0.76,1.054c-0.274,0.34-0.569,0.66-0.747,1.063
			c-0.348,0.788,0.032,1.57,0.835,1.871c0.569,0.214,1.236,0.149,1.828,0.096c0.668-0.06,1.333-0.169,2.003-0.201
			c0.139-0.007,0.277-0.007,0.417-0.005c0.042,0.001,0.086,0.005,0.129,0.009c0.006,0.001,0.005,0.001,0.014,0.003
			c0.234,0.047,0.462,0.124,0.687,0.202c1.573,0.551,5.159,2.629,6.175,0.199c0.4-0.956,0.053-1.942-0.671-2.619
			c-0.621-0.581-1.465-0.913-2.038-1.542c-0.866-0.952,0.136-2.226,0.829-2.969c0.614-0.658,1.206-1.04,2.104-0.721
			c0.891,0.316,1.647,0.935,2.589,1.121c0.438,0.086,1.151-0.253,1.121-0.786C133.973,192.68,131.19,191.619,129.432,191.054z"/>
		<path style="opacity:0.71;fill:#434553;" d="M138.657,199.838c-0.264-0.456-0.658-0.759-1.028-1.122
			c-0.118-0.116-0.233-0.235-0.348-0.353c-0.057-0.154-0.114-0.308-0.182-0.458c-0.449-0.991-1.712-0.161-1.867,0.605
			c-0.221,1.084-0.435,2.184-0.824,3.223c-0.348,0.928-0.892,1.732-1.404,2.573c-0.979,1.606-1.903,3.304-1.567,5.24
			c0.074,0.429,0.682,0.309,0.915,0.14c1.114-0.811,2.18-1.679,3.209-2.595c1.046-0.929,2.09-1.95,2.821-3.154
			C139.14,202.688,139.421,201.157,138.657,199.838z"/>
		<path style="opacity:0.61;fill:#A9B2B8;" d="M144.066,320.395c-3.475-2.921-6.562-6.349-8.796-10.314
			c-1.136-2.017-2.246-4.061-3.229-6.157c-0.564-1.203-1.077-2.43-1.562-3.667c-0.492-1.252-0.844-2.555-1.247-3.836
			c-0.687-2.18-1.185-4.443-1.008-6.734c0.028-0.358-0.469-0.269-0.622-0.092c-1.395,1.609-1.139,4.326-0.673,6.244
			c0.308,1.269,0.815,2.473,1.364,3.653c0.605,1.302,1.226,2.598,1.859,3.887c1.074,2.188,2.09,4.398,3.482,6.409
			c1.3,1.878,2.761,3.676,4.319,5.346c1.851,1.984,3.824,3.758,5.985,5.399C144.007,320.585,144.144,320.46,144.066,320.395z"/>
		<path style="opacity:0.78;fill:#A9B2B8;" d="M138.229,287.539c0.002-0.326-0.158-0.587-0.48-0.684
			c-0.032-0.01-0.066-0.008-0.099-0.014c-0.13-0.104-0.285-0.183-0.442-0.215c-0.447-0.092-0.867,0.033-1.245,0.273
			c-0.284,0.18-0.505,0.435-0.686,0.717c-0.018,0.024-0.038,0.045-0.055,0.071c-0.159,0.244-0.272,0.504-0.352,0.779
			c-0.125,0.365-0.199,0.756-0.138,1.136c0.013,0.081,0.047,0.152,0.095,0.213c0.069,0.176,0.162,0.322,0.319,0.441
			c0.175,0.134,0.405,0.188,0.622,0.197c1.035,0.04,1.759-0.862,2.074-1.768c0.032-0.049,0.068-0.095,0.095-0.147
			C138.097,288.226,138.227,287.896,138.229,287.539z"/>
		<g>
			<path style="opacity:0.78;fill:#A9B2B8;" d="M154.004,272.478c-0.44,0.058-0.842,0.374-1.186,0.64
				c-0.35,0.27-0.688,0.552-1.011,0.855c-0.373,0.35-0.733,0.707-1.076,1.086c-0.353,0.391-0.71,0.794-1.005,1.232
				c-0.196,0.292-0.334,0.646-0.245,1c0.118,0.465,0.588,0.589,1.011,0.519c0.348-0.058,0.69-0.314,0.872-0.611
				c0.034-0.056,0.068-0.125,0.095-0.2c0.008-0.012,0.017-0.026,0.024-0.037c0.084-0.131,0.167-0.262,0.26-0.387
				c0.003-0.003,0.005-0.007,0.008-0.01c-0.099,0.13-0.017,0.018,0.027-0.037c0.003-0.003,0.005-0.006,0.008-0.009
				c0.021-0.027,0.041-0.054,0.062-0.081c-0.024,0.032-0.043,0.057-0.06,0.08c0.065-0.081,0.131-0.162,0.198-0.242
				c0.128-0.154,0.259-0.306,0.391-0.457c0.322-0.368,0.62-0.756,0.937-1.128c0.097-0.113,0.187-0.229,0.279-0.347
				c0.009-0.012,0.033-0.044,0.053-0.073c-0.009,0.012-0.018,0.025-0.032,0.044c0.131-0.182,0.283-0.35,0.419-0.528
				c0.042-0.055,0.083-0.11,0.125-0.166c0.017-0.023,0.19-0.248,0.086-0.114c0.161-0.207,0.244-0.39,0.297-0.649
				C154.607,272.541,154.228,272.448,154.004,272.478z"/>
			<path style="fill:#A9B2B8;" d="M151.753,276.565c0.01-0.014,0.022-0.029,0.036-0.048c-0.001,0-0.001,0.001-0.001,0.001
				C151.776,276.534,151.764,276.549,151.753,276.565z"/>
		</g>
		<path style="fill:#A9B2B8;" d="M165.643,283.443c-0.106-0.456-0.665-0.627-1.073-0.519c-1.049,0.278-1.91,1.048-2.495,1.943
			c-0.232,0.356-0.399,0.737-0.505,1.141c-0.264,0.461-0.448,0.966-0.415,1.485c0.013,0.203,0.041,0.363,0.194,0.514
			c0.139,0.136,0.334,0.217,0.533,0.211c1.239-0.031,2.26-0.973,2.941-1.932C165.377,285.505,165.871,284.422,165.643,283.443z"/>
		<path style="opacity:0.61;fill:#A9B2B8;" d="M160.022,304.633c-0.087-0.446-0.512-0.752-0.825-1.042
			c-0.328-0.303-0.676-0.569-1.023-0.851c-0.753-0.611-1.525-1.196-2.273-1.814c-0.731-0.604-1.415-1.256-2.113-1.897
			c-0.328-0.301-0.638-0.62-0.959-0.929c-0.335-0.322-0.665-0.62-0.913-1.015c-0.199-0.316-0.87,0.09-0.73,0.411
			c0.182,0.421,0.296,0.86,0.473,1.284c0.185,0.443,0.409,0.859,0.655,1.27c0.516,0.863,1.175,1.625,1.869,2.351
			c0.693,0.724,1.494,1.437,2.328,1.995c0.792,0.53,1.884,1.208,2.879,1.034C159.737,305.369,160.094,305.005,160.022,304.633z"/>
		<path style="opacity:0.61;fill:#A9B2B8;" d="M150.473,304.844c-0.554-0.327-1.12-0.626-1.694-0.916
			c-0.325-0.164-0.65-0.329-0.973-0.498c-0.216-0.113-0.421-0.248-0.645-0.346c-0.079-0.034-0.159-0.067-0.238-0.101
			c-0.021-0.009-0.029-0.012-0.04-0.017c-0.057-0.027-0.114-0.055-0.171-0.083c-0.278-0.139-0.605-0.098-0.856,0.09
			c-0.211,0.158-0.485,0.485-0.377,0.774c0.129,0.345,0.265,0.682,0.501,0.967c0.236,0.286,0.492,0.566,0.781,0.799
			c0.494,0.399,1.018,0.722,1.56,1.049c0.135,0.082,0.268,0.168,0.404,0.249c0.433,0.256,0.891,0.306,1.371,0.114
			c0.512-0.204,0.983-0.742,0.934-1.318C151,305.262,150.761,305.014,150.473,304.844z"/>
		<path style="opacity:0.61;fill:#A9B2B8;" d="M146.998,309.68c-0.028-0.034-0.063-0.065-0.095-0.096
			c-0.087-0.087-0.17-0.184-0.271-0.255c-0.061-0.043-0.122-0.085-0.183-0.126c-0.133-0.09-0.266-0.177-0.406-0.256
			c-0.307-0.173-0.61-0.354-0.891-0.567c-0.1-0.076-0.274-0.086-0.39-0.058c-0.134,0.033-0.252,0.094-0.356,0.184
			c-0.193,0.166-0.329,0.433-0.187,0.675c0.153,0.262,0.331,0.507,0.517,0.746c0.092,0.118,0.185,0.231,0.289,0.339
			c0.137,0.143,0.268,0.3,0.419,0.429c0.055,0.047,0.111,0.095,0.168,0.14c0.223,0.177,0.518,0.15,0.772,0.068
			c0.32-0.104,0.572-0.347,0.679-0.667C147.121,310.063,147.121,309.829,146.998,309.68z"/>
		<path style="opacity:0.61;fill:#A9B2B8;" d="M148.752,315.08c-0.027-0.147-0.101-0.278-0.171-0.409
			c-0.045-0.084-0.092-0.167-0.139-0.25c-0.045-0.079-0.09-0.157-0.136-0.235c-0.019-0.032-0.035-0.067-0.057-0.097
			c-0.01-0.013-0.022-0.024-0.033-0.036c-0.004-0.004-0.008-0.009-0.012-0.013c-0.171-0.185-0.153-0.166-0.386-0.266
			c-0.172-0.045-0.345-0.048-0.518-0.009c-0.199,0.044-0.383,0.125-0.55,0.243c-0.295,0.207-0.568,0.548-0.584,0.924
			c-0.002,0.036,0.011,0.214,0.022,0.247c0.002,0.007,0.005,0.014,0.008,0.02c0.019,0.049,0.041,0.095,0.064,0.144
			c0.034,0.074,0.064,0.13,0.107,0.195c0.011,0.017,0.022,0.033,0.033,0.05c0.029,0.092,0.075,0.179,0.119,0.264
			c0.023,0.043,0.048,0.085,0.077,0.124c0.03,0.041,0.064,0.076,0.097,0.114c0.015,0.017,0.025,0.037,0.038,0.055
			c0.062,0.092,0.134,0.146,0.222,0.195c0.069,0.032,0.139,0.064,0.208,0.096c0.124,0.038,0.248,0.045,0.374,0.022
			c0.093,0,0.182-0.019,0.267-0.057c0.145-0.037,0.279-0.102,0.4-0.193c0.157-0.118,0.297-0.259,0.406-0.423
			c0.076-0.109,0.122-0.229,0.139-0.358C148.782,315.314,148.784,315.198,148.752,315.08z"/>
		<path style="opacity:0.61;fill:#A9B2B8;" d="M172.649,307.22c-0.033-0.071-0.065-0.143-0.098-0.214
			c-0.069-0.105-0.162-0.177-0.277-0.216c-0.072-0.046-0.151-0.069-0.236-0.069c-0.088-0.023-0.177-0.025-0.266-0.005
			c-0.257,0.025-0.485,0.119-0.701,0.263c-0.144,0.096-0.275,0.226-0.404,0.339c-0.131,0.078-0.261,0.158-0.383,0.249
			c-0.337,0.252-0.631,0.541-0.864,0.892c-0.033,0.042-0.067,0.083-0.099,0.126c-0.077,0.101-0.123,0.217-0.176,0.333
			c-0.122,0.268-0.029,0.616,0.211,0.782c0.254,0.177,0.663,0.16,0.928,0.017c0.216-0.116,0.441-0.233,0.636-0.383
			c0.131-0.101,0.257-0.206,0.383-0.313c0.067-0.057,0.135-0.113,0.202-0.169c0.045-0.014,0.09-0.028,0.135-0.045
			c0.091-0.036,0.174-0.087,0.255-0.144c0.003-0.002,0.007-0.003,0.01-0.005c-0.001,0-0.001,0-0.002,0
			c0.109-0.078,0.211-0.169,0.306-0.26c0.049-0.047,0.082-0.096,0.127-0.153c0.042-0.054,0.086-0.102,0.119-0.161
			c0.06-0.108,0.131-0.242,0.164-0.37l0.052-0.252C172.663,307.38,172.656,307.301,172.649,307.22z"/>
		<path style="fill:#5E6275;" d="M15.486,342.236c-0.321,0.332-0.685,0.618-1.002,0.953c-0.315,0.332-0.628,0.666-0.94,1.001
			c-0.65,0.695-1.244,1.454-1.793,2.232c-0.494,0.701-0.874,1.423-1.252,2.19c-0.181,0.367-0.405,0.716-0.627,1.06
			c-0.206,0.318-0.525,0.634-0.628,1c-0.062,0.218,0.152,0.319,0.334,0.234c0.707-0.327,1.209-1.2,1.694-1.781
			c0.581-0.697,1.164-1.374,1.692-2.113c0.518-0.726,1.054-1.451,1.509-2.219c0.236-0.398,0.474-0.795,0.71-1.192
			c0.233-0.392,0.402-0.816,0.627-1.212C15.949,342.144,15.631,342.087,15.486,342.236z"/>
		<path style="fill:#5E6275;" d="M39.187,355.404c-0.245-0.664-0.643-1.268-0.98-1.889c-0.319-0.588-0.644-1.175-1.001-1.74
			c-0.774-1.222-1.748-2.293-2.861-3.215c-1.13-0.937-2.375-1.808-3.68-2.48c-0.655-0.338-1.317-0.645-2.014-0.887
			c-0.762-0.264-1.517-0.401-2.301-0.571c-0.194-0.042-0.623,0.31-0.346,0.444c0.616,0.299,1.209,0.714,1.787,1.081
			c0.581,0.368,1.163,0.743,1.73,1.134c1.187,0.817,2.35,1.654,3.471,2.561c1.058,0.856,2.007,1.84,2.945,2.823
			c0.464,0.487,0.921,0.979,1.366,1.484c0.466,0.53,0.874,1.121,1.398,1.596C38.872,355.901,39.265,355.616,39.187,355.404z"/>
		<path style="fill:#5E6275;" d="M34.875,353.16c-0.397-0.516-0.915-0.955-1.437-1.34c-1.059-0.781-2.201-1.431-3.481-1.758
			c-0.323-0.083-0.99,0.352-0.694,0.723c0.772,0.965,1.799,1.633,2.731,2.43c0.447,0.382,0.866,0.799,1.314,1.179
			c0.479,0.407,1.012,1.053,1.685,1.039c0.237-0.005,0.464-0.16,0.548-0.384C35.789,354.384,35.267,353.67,34.875,353.16z"/>
		<path style="fill:#5E6275;" d="M33.499,355.282c-0.028-0.107-0.088-0.193-0.18-0.256c-0.092-0.082-0.228-0.133-0.338-0.182
			c-0.112-0.049-0.222-0.064-0.346-0.078c-0.26-0.028-0.519,0.06-0.759,0.145c-0.008,0-0.016,0.001-0.024,0.001
			c-0.085-0.009-0.171,0-0.251,0.034c-0.142,0.062-0.314,0.221-0.358,0.375c-0.032,0.112-0.013,0.23,0.022,0.341
			c-0.006,0.062-0.003,0.125,0.011,0.188c0.004,0.03,0.008,0.059,0.018,0.088c0.023,0.066,0.053,0.139,0.092,0.197
			c0.03,0.043,0.089,0.097,0.129,0.129c0.007,0.005,0.013,0.01,0.019,0.015c0.056,0.04,0.127,0.068,0.195,0.086
			c0.156,0.043,0.313,0.024,0.469-0.007c0.043-0.009,0.086-0.022,0.128-0.036c0.203-0.005,0.407-0.049,0.595-0.134
			c0.245-0.112,0.47-0.313,0.557-0.575C33.517,355.505,33.524,355.395,33.499,355.282z"/>
		<path style="fill:#5E6275;" d="M33.478,369.274c-0.323-0.73-0.721-1.426-1.12-2.118c-0.846-1.465-1.713-2.988-2.841-4.259
			c-0.604-0.681-1.261-1.367-2.002-1.9c-0.791-0.569-1.73-1.201-2.694-1.38c-0.198-0.037-0.661,0.226-0.451,0.469
			c0.25,0.289,0.545,0.536,0.845,0.779c-0.197,0.137-0.323,0.37-0.186,0.564c0.685,0.974,1.472,1.85,1.906,2.976
			c0.44,1.143,0.781,2.29,0.858,3.518c0.038,0.611,0.259,1.752-0.269,2.211c-0.412,0.358-1.088,0.467-1.598,0.602
			c-0.585,0.154-1.164,0.294-1.736,0.494c-0.373,0.131-0.619,0.834-0.054,0.849c1.07,0.029,2.108,0.268,3.151,0.492
			c0.946,0.203,1.887,0.353,2.847,0.472c0.69,0.085,1.392,0.241,2.085,0.086c0.768-0.172,1.382-0.807,1.622-1.544
			C34.086,370.834,33.783,369.964,33.478,369.274z"/>
		<g>
			<path style="opacity:0.51;fill:#826759;" d="M104.185,219.014c-2.926,2.007-4.909,5.119-6.821,8.044
				c-2.148,3.286-4.486,6.407-6.835,9.551c-2.571,3.441-5.064,6.935-7.407,10.536c-2.284,3.51-4.489,7.073-6.874,10.517
				c-2.381,3.439-4.957,6.717-7.433,10.084c-2.422,3.292-4.664,6.713-6.843,10.17c-2.18,3.458-4.271,6.97-6.438,10.436
				c-2.201,3.52-4.54,6.95-6.75,10.465c-2.213,3.52-4.365,7.095-6.769,10.491c-2.241,3.166-4.73,6.219-6.547,9.662
				c-0.41,0.777-0.759,1.591-1.073,2.411c-0.114,0.298,0.362,0.276,0.463,0.068c1.68-3.467,3.997-6.578,6.273-9.667
				c2.4-3.257,4.6-6.631,6.76-10.052c4.417-6.993,8.997-13.88,13.461-20.843c2.195-3.424,4.4-6.845,6.759-10.16
				c2.393-3.363,5.026-6.541,7.476-9.862c5.029-6.818,9.767-13.846,14.676-20.75c1.239-1.742,2.451-3.503,3.678-5.252
				c1.103-1.571,2.227-3.127,3.237-4.76c1.844-2.98,3.475-6.154,5.68-8.894c0.524-0.651,1.018-1.326,1.567-1.957
				C104.599,219.054,104.386,218.877,104.185,219.014z"/>
			<path style="opacity:0.51;fill:#826759;" d="M112.762,221.085c-0.672,1.708-1.859,3.119-2.897,4.61
				c-1.135,1.631-2.137,3.372-3.129,5.093c-1.965,3.409-3.76,6.91-5.675,10.347c-1.87,3.357-3.846,6.657-6.011,9.833
				c-1.805,2.649-3.79,5.137-5.813,7.619c-0.68,0.834-1.383,1.657-2.169,2.393c-0.367,0.343-1.299,1.257-1.768,0.984
				c-0.621-0.361-0.182-1.624-0.022-2.122c0.36-1.124,0.887-2.191,1.432-3.234c1.367-2.613,2.619-5.282,3.979-7.9
				c1.877-3.613,3.859-7.164,5.9-10.687c1.727-2.982,3.55-5.902,5.072-8.997c1.332-2.707,2.689-5.56,4.723-7.823
				c0.477-0.531,0.948-1.044,1.51-1.489c0.281-0.223,0.066-0.527-0.241-0.343c-2.723,1.636-4.479,4.393-6.019,7.092
				c-0.802,1.406-1.547,2.842-2.315,4.267c-0.853,1.582-1.816,3.1-2.741,4.64c-2.202,3.665-4.326,7.384-6.292,11.182
				c-1.564,3.021-2.924,6.2-4.403,9.061c-0.577,1.116-1.143,2.246-1.585,3.423c-0.34,0.905-0.775,2.076-0.487,3.05
				c0.273,0.925,1.172,1.13,2.002,0.833c1.002-0.359,1.838-1.189,2.559-1.942c0.708-0.739,1.352-1.534,1.991-2.333
				c1.025-1.282,2.073-2.541,3.056-3.857c2.415-3.233,4.585-6.639,6.618-10.122c2.05-3.512,3.928-7.109,5.818-10.709
				c0.995-1.896,2.059-3.75,3.177-5.576c1.035-1.69,2.202-3.263,3.313-4.9c0.51-0.751,0.958-1.536,1.304-2.377
				C113.884,220.529,112.936,220.643,112.762,221.085z"/>
			<path style="opacity:0.51;fill:#826759;" d="M111.718,219.447c-1.52,2.095-3.268,4.001-4.858,6.041
				c-0.715,0.918-1.357,1.883-2.016,2.841c-0.437,0.635-0.903,1.317-1.449,1.903c0.114-0.249,0.23-0.497,0.36-0.739
				c0.358-0.665,0.764-1.302,1.18-1.931c0.736-1.115,1.465-2.237,2.131-3.396c0.611-1.064,1.204-2.149,1.896-3.164
				c0.343-0.502,0.717-0.972,1.135-1.413c0.389-0.411,0.83-0.718,1.269-1.069c0.155-0.124,0.16-0.368-0.088-0.336
				c-1.101,0.142-2.064,1.235-2.72,2.047c-0.864,1.068-1.573,2.235-2.263,3.419c-0.708,1.214-1.511,2.363-2.243,3.561
				c-0.416,0.682-0.811,1.377-1.159,2.096c-0.315,0.652-0.655,1.344-0.674,2.079c-0.009,0.333,0.413,0.235,0.565,0.084
				c0.837-0.832,1.6-1.677,2.302-2.629c0.756-1.026,1.462-2.083,2.266-3.073c1.662-2.046,3.582-3.905,5.012-6.131
				C112.667,219.166,111.956,219.12,111.718,219.447z"/>
			<path style="opacity:0.51;fill:#826759;" d="M116.649,221.122c-3.25,2.935-5.678,6.582-7.708,10.434
				c-2.132,4.046-3.925,8.257-5.572,12.519c-0.875,2.264-1.768,4.536-2.925,6.674c-1.098,2.03-2.448,3.947-3.906,5.734
				c-2.928,3.587-6.316,6.735-9.735,9.842c-1.686,1.532-3.414,3.026-5.296,4.316c-1.781,1.22-3.802,2.051-5.461,3.447
				c-1.525,1.283-2.756,2.842-3.938,4.436c-1.514,2.041-2.963,4.13-4.385,6.236c-2.79,4.131-5.629,8.245-8.146,12.549
				c-1.163,1.989-2.319,3.99-3.679,5.853c-1.458,1.997-3.104,3.871-4.676,5.779c-3.132,3.8-6.189,7.625-8.904,11.737
				c-1.417,2.147-2.839,4.291-4.277,6.424c-1.303,1.934-2.392,3.967-3.554,5.986c-0.55,0.955-1.13,1.899-1.773,2.794
				c-0.159,0.222,0.188,0.313,0.325,0.151c1.478-1.749,2.552-3.775,3.736-5.725c1.267-2.086,2.748-4.037,4.153-6.031
				c2.9-4.117,5.798-8.211,8.976-12.12c3.025-3.72,6.301-7.291,8.792-11.406c1.212-2.002,2.318-4.067,3.555-6.054
				c1.319-2.12,2.758-4.171,4.138-6.252c1.408-2.125,2.821-4.247,4.278-6.338c1.319-1.892,2.636-3.821,4.152-5.563
				c0.629-0.723,1.304-1.412,2.056-2.009c0.848-0.673,1.773-1.174,2.717-1.695c1.978-1.093,3.801-2.423,5.528-3.877
				c3.49-2.938,6.896-6.082,9.978-9.447c3.135-3.422,5.901-7.176,7.947-11.352c2.084-4.253,3.689-8.723,5.717-13.004
				c1.846-3.896,3.788-7.822,6.349-11.307c0.621-0.845,1.295-1.644,2.022-2.4C117.497,221.074,116.964,220.838,116.649,221.122z"/>
			<path style="opacity:0.51;fill:#826759;" d="M77.777,264.462c-7.496,7.674-13.857,16.379-19.928,25.198
				c-3.024,4.393-5.96,8.845-8.953,13.258c-3.152,4.648-6.408,9.224-9.561,13.871c-1.785,2.632-3.581,5.256-5.399,7.864
				c-1.795,2.575-3.772,5.103-5.222,7.894c-0.211,0.406,0.3,0.52,0.545,0.253c1.91-2.079,3.489-4.454,5.133-6.744
				c1.658-2.31,3.323-4.615,4.988-6.92c3.298-4.564,6.464-9.218,9.56-13.922c5.85-8.888,11.717-17.774,18.021-26.349
				c3.56-4.842,7.258-9.584,11.063-14.236C78.189,264.428,77.933,264.302,77.777,264.462z"/>
			<path style="opacity:0.51;fill:#826759;" d="M28.862,326.577c-0.599,1.182-1.519,2.191-2.32,3.237
				c-0.391,0.511-0.773,1.03-1.11,1.578c-0.317,0.516-0.743,1.169-0.667,1.793c0.037,0.302,0.509,0.158,0.625,0.011
				c0.39-0.491,0.573-1.115,0.867-1.668c0.305-0.572,0.657-1.117,1.016-1.656c0.703-1.053,1.369-2.103,1.915-3.249
				C29.285,326.425,28.937,326.429,28.862,326.577z"/>
			<path style="opacity:0.51;fill:#826759;" d="M80.597,279.339c-5.976,7.439-11.59,15.167-16.921,23.08
				c-5.381,7.988-10.553,16.124-15.518,24.377c-1.416,2.354-2.886,4.671-4.349,6.996c-1.39,2.209-2.623,4.456-3.336,6.98
				c-0.228,0.806,0.915,0.549,1.139,0.021c0.909-2.152,2.163-4.186,3.441-6.136c1.315-2.006,2.673-3.984,3.97-6.003
				c2.611-4.064,5.096-8.208,7.631-12.32c4.956-8.039,9.959-16.055,15.227-23.895c2.944-4.38,5.994-8.683,9.194-12.879
				C81.315,279.246,80.796,279.091,80.597,279.339z"/>
			<path style="opacity:0.51;fill:#826759;" d="M101.237,259.992c-2.077,2.623-3.608,5.717-6.139,7.963
				c-2.531,2.246-5.668,3.756-7.856,6.396c-2.11,2.547-3.277,5.767-4.751,8.692c-0.863,1.713-1.817,3.381-2.748,5.057
				c-0.924,1.663-1.782,3.358-2.687,5.031c-0.804,1.487-1.885,2.797-2.836,4.187c-0.957,1.399-1.699,2.936-2.544,4.403
				c-1.72,2.987-3.67,5.826-5.701,8.608c-2.039,2.793-4.148,5.535-6.093,8.395c-2.088,3.072-3.934,6.319-5.848,9.501
				c-1.888,3.139-3.7,6.371-5.83,9.354c-1.86,2.606-3.946,5.075-5.277,8.014c-0.309,0.681-0.504,1.441-0.666,2.17
				c-0.043,0.195,0.228,0.142,0.276,0.005c1.09-3.099,3.254-5.728,5.265-8.271c2.206-2.789,4.126-5.76,6.058-8.742
				c2.094-3.232,4.133-6.502,6.264-9.71c1.899-2.86,3.975-5.592,6.048-8.326c2.071-2.732,4.126-5.479,5.918-8.406
				c0.885-1.446,1.626-2.956,2.296-4.511c0.66-1.532,1.692-2.871,2.601-4.259c0.961-1.467,1.651-3.042,2.41-4.617
				c0.826-1.712,1.669-3.415,2.499-5.124c1.495-3.083,2.763-6.342,4.74-9.159c0.971-1.384,2.135-2.613,3.463-3.658
				c1.329-1.045,2.764-1.961,4.048-3.06c2.542-2.177,4.176-4.991,5.98-7.761c0.451-0.691,0.916-1.372,1.413-2.03
				C101.695,259.932,101.363,259.832,101.237,259.992z"/>
			<path style="opacity:0.51;fill:#826759;" d="M110.235,249.535c-2.148,2.981-4.378,5.9-6.393,8.975
				c-1.991,3.038-3.956,6.092-5.906,9.157c-3.821,6.007-7.603,12.047-11.59,17.946c-1.942,2.874-3.959,5.698-6.095,8.431
				c-2.077,2.658-4.12,5.318-5.971,8.142c-3.7,5.644-6.713,11.69-9.832,17.662c-3.161,6.052-7.105,11.641-10.58,17.509
				c-0.428,0.722-0.839,1.45-1.226,2.194c-0.183,0.353,0.309,0.394,0.467,0.136c1.789-2.923,3.583-5.836,5.47-8.699
				c1.886-2.862,3.783-5.72,5.49-8.694c1.679-2.923,3.136-5.971,4.741-8.936c1.602-2.96,3.291-5.865,5.123-8.69
				c1.833-2.827,3.761-5.595,5.886-8.211c2.191-2.697,4.33-5.417,6.347-8.248c4.134-5.804,7.934-11.84,11.763-17.847
				c3.882-6.092,7.816-12.154,11.453-18.397c0.446-0.766,0.897-1.527,1.364-2.28C110.977,249.309,110.421,249.277,110.235,249.535z"
				/>
		</g>
		<g>
			<path style="fill:#A9B2B8;" d="M122.271,255.011c-0.181-1.615-0.546-3.221-1.306-4.668c-0.352-0.671-0.79-1.225-1.382-1.7
				c-0.571-0.459-1.361-0.713-2.074-0.846c-0.173-0.032-0.563,0.257-0.314,0.403c1.068,0.624,1.845,1.735,2.422,2.808
				c0.655,1.216,0.966,2.621,1.16,3.979c0.406,2.848,0.205,5.776-0.205,8.613c-0.668,4.618-2.091,9.132-3.58,13.543
				c-1.489,4.41-3.102,8.775-4.527,13.207c-0.784,2.439-1.522,4.899-2.071,7.403c-0.536,2.443-0.935,5.084-0.632,7.585
				c0.047,0.392,0.653,0.03,0.685-0.222c0.156-1.203,0.276-2.406,0.512-3.598c0.235-1.191,0.546-2.371,0.87-3.54
				c0.638-2.306,1.472-4.546,2.208-6.821c1.452-4.489,3.069-8.918,4.553-13.395c1.486-4.482,2.73-9.007,3.406-13.687
				C122.428,261.083,122.608,258.017,122.271,255.011z"/>
			<path style="fill:#A9B2B8;" d="M114.114,297.959c-0.12-0.343-0.426-0.483-0.779-0.448c-0.182,0.018-0.341,0.074-0.499,0.164
				c-0.189,0.107-0.401,0.267-0.502,0.464c-0.209,0.405-0.34,0.79-0.425,1.236c-0.06,0.311-0.069,0.625-0.071,0.941
				c-0.002,0.241,0.086,0.444,0.26,0.575c-0.004,0.009-0.007,0.019-0.011,0.028c-0.128,0.359,0.069,0.707,0.446,0.761
				c0.439,0.064,0.82-0.203,1.071-0.54c0.359-0.482,0.534-1.055,0.623-1.643C114.302,298.996,114.283,298.441,114.114,297.959z"/>
			<path style="fill:#A9B2B8;" d="M123.773,247.703c-0.387-0.745-0.857-1.406-1.445-2.005c-0.306-0.311-0.67-0.583-1.044-0.809
				c-0.175-0.105-0.357-0.189-0.544-0.271c-0.243-0.106-0.516-0.13-0.75-0.248c-0.16-0.081-0.454,0.148-0.279,0.293
				c0.228,0.189,0.379,0.54,0.557,0.785c0.212,0.293,0.438,0.573,0.64,0.874c0.403,0.598,0.806,1.186,1.158,1.817
				c0.714,1.281,1.189,2.728,1.508,4.155c0.697,3.12,0.615,6.361,0.209,9.516c-0.197,1.528-0.519,3.043-0.566,4.587
				c-0.009,0.29,0.41,0.188,0.499,0.009c0.653-1.329,0.992-2.751,1.226-4.208c0.261-1.626,0.426-3.269,0.47-4.915
				C125.498,254.062,125.285,250.612,123.773,247.703z"/>
		</g>
		<path style="opacity:0.54;fill:#FFFFFF;" d="M140.562,312.656c-1.841-2.105-3.696-4.158-5.139-6.568
			c-1.355-2.263-2.593-4.679-3.6-7.118c-0.951-2.302-1.973-5.064-1.465-7.588c0.205-1.019,0.665-2.14,1.165-3.051
			c0.544-0.991,1.239-1.828,2.027-2.634c0.918-0.939,1.899-1.811,2.8-2.767c0.843-0.895,1.74-1.916,2.232-3.054
			c0.132-0.305-0.307-0.242-0.435-0.128c-0.921,0.819-1.807,1.663-2.758,2.45c-0.967,0.799-1.929,1.596-2.844,2.455
			c-1.777,1.669-3.721,3.757-4.15,6.243c-0.462,2.672,0.315,5.391,1.421,7.802c0.574,1.252,1.24,2.457,1.905,3.662
			c0.63,1.142,1.244,2.302,1.958,3.395c1.763,2.701,3.885,5.253,6.257,7.44C140.186,313.429,140.805,312.935,140.562,312.656z"/>
		<path style="opacity:0.54;fill:#FFFFFF;" d="M150.208,300.658c-0.238-0.217-0.474-0.437-0.712-0.654
			c-0.001-0.001-0.001-0.001-0.002-0.002c-0.008-0.008-0.016-0.016-0.024-0.024c-0.068-0.069-0.135-0.139-0.202-0.21
			c-0.115-0.122-0.224-0.25-0.339-0.371c-0.235-0.247-0.475-0.488-0.704-0.74c-0.114-0.126-0.223-0.257-0.338-0.381
			c-0.035-0.038-0.357-0.354-0.182-0.181c-0.06-0.06-0.121-0.12-0.181-0.18c-0.265-0.264-0.515-0.567-0.805-0.803
			c-0.243-0.198-0.519-0.354-0.764-0.548c-0.178-0.141-0.354-0.253-0.591-0.237c-0.227,0.015-0.453,0.109-0.577,0.31
			c-0.226,0.363-0.081,0.634,0.013,1.002c0.091,0.357,0.19,0.699,0.347,1.033c0.289,0.616,0.583,1.211,0.953,1.783
			c0.365,0.566,0.774,1.074,1.252,1.549c0.65,0.647,1.415,1.322,2.408,1.055c0.517-0.139,1.099-0.566,1.122-1.155
			C150.905,301.323,150.613,301.026,150.208,300.658z"/>
		<path style="opacity:0.54;fill:#FFFFFF;" d="M163.617,278.754c-0.377-0.784-1.062-1.365-1.656-1.988
			c-0.275-0.289-0.555-0.579-0.821-0.877c-0.154-0.172-0.285-0.37-0.443-0.537c-0.155-0.164-0.433-0.293-0.544-0.488
			c-0.165-0.288-0.689,0.076-0.618,0.349c0.053,0.207-0.016,0.436,0.007,0.651c0.023,0.22,0.098,0.426,0.172,0.635
			c0.163,0.458,0.358,0.896,0.615,1.309c0.343,0.551,0.753,1.095,1.245,1.535c-0.105,0.066-0.208,0.134-0.306,0.21
			c-0.416,0.322-0.818,0.67-1.194,1.038c-0.746,0.731-1.459,1.491-2.215,2.212c-1.458,1.39-3.22,2.882-4.018,4.775
			c-0.166,0.393,0.413,0.362,0.589,0.173c0.683-0.738,1.359-1.479,2.114-2.146c0.755-0.668,1.547-1.294,2.315-1.948
			c0.727-0.619,1.395-1.275,2.061-1.958c0.352-0.361,0.699-0.73,1.069-1.073c0.155-0.144,0.316-0.278,0.486-0.404
			c0.09-0.067,0.182-0.132,0.275-0.193c0.098-0.065,0.333-0.117,0.108-0.07C163.39,279.845,163.876,279.292,163.617,278.754z"/>
		<path style="opacity:0.54;fill:#FFFFFF;" d="M167.502,301.572c-0.466,0.251-1.017,0.366-1.513,0.553
			c-0.447,0.168-0.865,0.392-1.291,0.607c-0.984,0.499-1.974,1.043-2.892,1.656c-0.7,0.467-1.304,1.134-2.204,1.047
			c-0.932-0.091-1.877-0.272-2.782-0.508c-0.221-0.058-0.676,0.325-0.382,0.491c0.513,0.29,0.978,0.677,1.488,0.973
			c-0.588,0.261-1.145,0.553-1.704,0.874c-1.078,0.618-2.093,1.338-3.068,2.108c-1.057,0.834-2.068,1.742-2.863,2.835
			c-0.316,0.434-0.589,0.906-0.83,1.385c-0.258,0.512-0.548,1.053-0.494,1.641c0.051,0.552,0.839,0.195,1.043,0.019
			c0.382-0.329,0.652-0.788,0.986-1.165c0.365-0.412,0.766-0.783,1.162-1.165c0.411-0.397,0.829-0.789,1.251-1.175
			c0.49-0.449,0.699-0.623,1.172-1.009c0.9-0.735,1.848-1.413,2.784-2.102c0.755-0.555,1.438-1.161,2.128-1.78
			c0.807,0.064,1.634-0.065,2.365-0.406c1.096-0.511,2.126-1.222,3.082-1.957c0.481-0.37,0.977-0.742,1.428-1.148
			c0.458-0.412,0.849-0.943,1.357-1.288C168.027,301.854,167.879,301.369,167.502,301.572z"/>
		<path style="opacity:0.54;fill:#FFFFFF;" d="M151.988,317.404c-0.07-0.214-0.223-0.39-0.451-0.447
			c-0.046-0.012-0.093-0.02-0.141-0.027c0.009,0.001,0.018,0.003,0.027,0.004c-0.146-0.022-0.288-0.058-0.435-0.068
			c-0.038-0.003-0.076-0.007-0.114-0.011c-0.053-0.01-0.107-0.018-0.16-0.031c-0.093-0.023-0.188-0.037-0.283-0.05
			c-0.202-0.032-0.393-0.09-0.582-0.169c-0.046-0.007-0.091-0.013-0.137-0.02c-0.049,0.005-0.099,0.01-0.148,0.015
			c-0.138,0.028-0.262,0.099-0.367,0.19c-0.084,0.072-0.148,0.15-0.196,0.25c-0.043,0.089-0.092,0.233-0.049,0.331
			c0.072,0.164,0.155,0.318,0.237,0.477c0.032,0.061,0.063,0.123,0.098,0.182c0.064,0.108,0.151,0.192,0.247,0.275
			c0.101,0.087,0.209,0.165,0.323,0.233c0.25,0.146,0.522,0.222,0.813,0.229c0.136,0.005,0.266-0.018,0.39-0.068
			c0.142-0.036,0.273-0.099,0.391-0.189c0.192-0.144,0.348-0.312,0.453-0.53C151.983,317.811,152.049,317.591,151.988,317.404z"/>
		<path style="opacity:0.54;fill:#FFFFFF;" d="M127.63,318.418c-2.727,1.02-5.216,2.674-7.705,4.168
			c-1.23,0.738-2.463,1.47-3.712,2.176c-1.302,0.736-2.666,1.403-3.822,2.36c-0.219,0.181-0.468,0.467-0.38,0.781
			c0.079,0.282,0.403,0.39,0.668,0.323c1.501-0.379,2.833-1.174,4.169-1.936c1.289-0.735,2.565-1.495,3.832-2.267
			c2.524-1.538,5.109-3.117,7.281-5.132C128.262,318.612,127.966,318.292,127.63,318.418z"/>
		<path style="opacity:0.54;fill:#FFFFFF;" d="M122.515,299.297c-0.263-0.177-0.518-0.402-0.687-0.58
			c-0.354-0.374-0.495-0.529-0.862-0.897c0.115,0.115-0.096-0.1-0.096-0.1c-0.067-0.071-0.132-0.144-0.196-0.219
			c-0.13-0.151-0.252-0.308-0.377-0.463c-0.256-0.317-0.491-0.65-0.702-0.998c-0.412-0.681-0.747-1.385-1.056-2.047
			c-0.154-0.33-0.266-0.673-0.383-1.016c-0.12-0.35-0.29-0.606-0.314-0.982c-0.038-0.607-0.858-0.23-0.928,0.197
			c-0.066,0.404-0.206,0.811-0.237,1.217c-0.035,0.457,0.006,0.925,0.048,1.38c0.088,0.945,0.402,1.837,0.839,2.675
			c0.421,0.809,0.97,1.581,1.694,2.15c0.723,0.569,1.67,0.782,2.575,0.779C122.261,300.39,123.091,299.685,122.515,299.297z"/>
	</g>
</g>
</svg>
